<?xml version="1.0" encoding="UTF-8" standalone="no"?>
<!DOCTYPE svg PUBLIC "-//W3C//DTD SVG 1.1//EN" "http://www.w3.org/Graphics/SVG/1.1/DTD/svg11.dtd">
<svg xmlns="http://www.w3.org/2000/svg" xmlns:xlink="http://www.w3.org/1999/xlink" version="1.1" width="292.31959pt" height="313.5602pt" viewBox="0 0 292.31959 313.5602">
<g enable-background="new">
<clipPath id="cp0">
<path transform="matrix(1,0,0,-1,-789.0394,747.9422)" d="M 0 0 L 1920 0 L 1920 1080 L 0 1080 Z "/>
</clipPath>
<g clip-path="url(#cp0)">
<path transform="matrix(1,0,0,-1,-789.0394,747.9422)" d="M 0 0 L 1920 0 L 1920 1080 L 0 1080 Z " fill="#ffffff"/>
<g id="Layer-1" data-name="P">
<path transform="matrix(.9624469,.2714702,-.2714702,.9624469,-580.73818,-523.94088)" stroke-width="14" stroke-linecap="butt" stroke-dasharray="28,28" stroke-miterlimit="4" stroke-linejoin="miter" fill="none" stroke="#f7ae2b" d="M 0 0 L 258.886 0 "/>
</g>
<g id="Layer-1" data-name="P">
<path transform="matrix(1,0,0,1,-582.09548,-421.09284)" stroke-width="14" stroke-linecap="butt" stroke-dasharray="28,28" stroke-miterlimit="4" stroke-linejoin="miter" fill="none" stroke="#f7ae2b" d="M 0 0 L 250.5214 0 "/>
</g>
<g id="Layer-1" data-name="P">
<path transform="matrix(1,0,0,-1,-789.0394,747.9422)" d="M 1209.156 981.2948 L 1262.116 981.2948 C 1266.083 981.2948 1268.464 981.2948 1270.051 980.6322 C 1272.339 979.7996 1274.141 977.9974 1274.974 975.7096 C 1275.636 974.1226 1275.636 971.7421 1275.636 967.7747 L 1275.636 914.8149 C 1275.636 910.8474 1275.636 908.467 1274.974 906.88 C 1274.141 904.5922 1272.339 902.79 1270.051 901.9573 C 1268.464 901.2948 1266.083 901.2948 1262.116 901.2948 L 1209.156 901.2948 C 1205.189 901.2948 1202.808 901.2948 1201.221 901.9573 C 1198.934 902.79 1197.131 904.5922 1196.299 906.88 C 1195.636 908.467 1195.636 910.8474 1195.636 914.8149 L 1195.636 967.7747 C 1195.636 971.7421 1195.636 974.1226 1196.299 975.7096 C 1197.131 977.9974 1198.934 979.7996 1201.221 980.6322 C 1202.808 981.2948 1205.189 981.2948 1209.156 981.2948 Z M 1209.156 981.2948 " fill="#3b96fa"/>
</g>
<g id="Layer-1" data-name="P">
<path transform="matrix(1,0,0,-1,-789.0394,747.9422)" d="M 808.0885 740.7823 L 861.0482 740.7823 C 865.0157 740.7823 867.3962 740.7823 868.9832 740.1197 C 871.271 739.287 873.0731 737.4849 873.9058 735.1971 C 874.5684 733.6101 874.5684 731.2296 874.5684 727.2621 L 874.5684 674.3024 C 874.5684 670.3349 874.5684 667.9544 873.9058 666.3674 C 873.0731 664.0797 871.271 662.2775 868.9832 661.4448 C 867.3962 660.7823 865.0157 660.7823 861.0482 660.7823 L 808.0885 660.7823 C 804.121 660.7823 801.7405 660.7823 800.1536 661.4448 C 797.8658 662.2775 796.0636 664.0797 795.2309 666.3674 C 794.5684 667.9544 794.5684 670.3349 794.5684 674.3024 L 794.5684 727.2621 C 794.5684 731.2296 794.5684 733.6101 795.2309 735.1971 C 796.0636 737.4849 797.8658 739.287 800.1536 740.1197 C 801.7405 740.7823 804.121 740.7823 808.0885 740.7823 Z M 808.0885 740.7823 " fill="#3dc59b"/>
</g>
<g id="Layer-1" data-name="P">
<path transform="matrix(1,0,0,-1,-789.0394,747.9422)" d="M 933.5201 1031.672 L 986.4799 1031.672 C 990.4473 1031.672 992.8278 1031.672 994.4148 1031.009 C 996.7026 1030.177 998.5048 1028.374 999.3375 1026.087 C 1000 1024.5 1000 1022.119 1000 1018.152 L 1000 965.192 C 1000 961.2245 1000 958.844 999.3375 957.257 C 998.5048 954.9692 996.7026 953.1671 994.4148 952.3344 C 992.8278 951.6718 990.4473 951.6718 986.4799 951.6718 L 933.5201 951.6718 C 929.5527 951.6718 927.1722 951.6718 925.5852 952.3344 C 923.2974 953.1671 921.4952 954.9692 920.6625 957.257 C 920 958.844 920 961.2245 920 965.192 L 920 1018.152 C 920 1022.119 920 1024.5 920.6625 1026.087 C 921.4952 1028.374 923.2974 1030.177 925.5852 1031.009 C 927.1722 1031.672 929.5527 1031.672 933.5201 1031.672 Z M 933.5201 1031.672 " fill="#3dc59b"/>
</g>
<g id="Layer-1" data-name="P">
<path transform="matrix(1,0,0,-1,-789.0394,747.9422)" d="M 1009.311 740.7823 L 1062.271 740.7823 C 1066.238 740.7823 1068.618 740.7823 1070.205 740.1197 C 1072.493 739.287 1074.295 737.4849 1075.128 735.1971 C 1075.791 733.6101 1075.791 731.2296 1075.791 727.2621 L 1075.791 674.3024 C 1075.791 670.3349 1075.791 667.9544 1075.128 666.3674 C 1074.295 664.0797 1072.493 662.2775 1070.205 661.4448 C 1068.618 660.7823 1066.238 660.7823 1062.271 660.7823 L 1009.311 660.7823 C 1005.343 660.7823 1002.963 660.7823 1001.376 661.4448 C 999.0881 662.2775 997.2859 664.0797 996.4532 666.3674 C 995.7907 667.9544 995.7907 670.3349 995.7907 674.3024 L 995.7907 727.2621 C 995.7907 731.2296 995.7907 733.6101 996.4532 735.1971 C 997.2859 737.4849 999.0881 739.287 1001.376 740.1197 C 1002.963 740.7823 1005.343 740.7823 1009.311 740.7823 Z M 1009.311 740.7823 " fill="#a7cffc"/>
</g>
<g id="Layer-1" data-name="P">
<path transform="matrix(1,0,0,-1,-789.0394,747.9422)" d="M 857.1277 928.1125 L 910.0875 928.1125 C 914.0549 928.1125 916.4354 928.1125 918.0224 927.45 C 920.3102 926.6173 922.1124 924.8151 922.9451 922.5274 C 923.6076 920.9404 923.6076 918.5599 923.6076 914.5924 L 923.6076 861.6327 C 923.6076 857.6652 923.6076 855.2847 922.9451 853.6977 C 922.1124 851.41 920.3102 849.6078 918.0224 848.7751 C 916.4354 848.1125 914.0549 848.1125 910.0875 848.1125 L 857.1277 848.1125 C 853.1603 848.1125 850.7798 848.1125 849.1928 848.7751 C 846.905 849.6078 845.1028 851.41 844.2702 853.6977 C 843.6076 855.2847 843.6076 857.6652 843.6076 861.6327 L 843.6076 914.5924 C 843.6076 918.5599 843.6076 920.9404 844.2702 922.5274 C 845.1028 924.8151 846.905 926.6173 849.1928 927.45 C 850.7798 928.1125 853.1603 928.1125 857.1277 928.1125 Z M 857.1277 928.1125 " fill="#3dc59b"/>
</g>
<g id="Layer-1" data-name="P">
<path transform="matrix(1,0,0,-1,-789.0394,747.9422)" d="M 1129.466 1048.192 L 1182.426 1048.192 C 1186.393 1048.192 1188.774 1048.192 1190.361 1047.529 C 1192.649 1046.697 1194.451 1044.895 1195.283 1042.607 C 1195.946 1041.02 1195.946 1038.639 1195.946 1034.672 L 1195.946 981.712 C 1195.946 977.7446 1195.946 975.3641 1195.283 973.7771 C 1194.451 971.4893 1192.649 969.6871 1190.361 968.8545 C 1188.774 968.1919 1186.393 968.1919 1182.426 968.1919 L 1129.466 968.1919 C 1125.499 968.1919 1123.118 968.1919 1121.531 968.8545 C 1119.243 969.6871 1117.441 971.4893 1116.609 973.7771 C 1115.946 975.3641 1115.946 977.7446 1115.946 981.712 L 1115.946 1034.672 C 1115.946 1038.639 1115.946 1041.02 1116.609 1042.607 C 1117.441 1044.895 1119.243 1046.697 1121.531 1047.529 C 1123.118 1048.192 1125.499 1048.192 1129.466 1048.192 Z M 1129.466 1048.192 " fill="#a7cffc"/>
</g>
<g id="Layer-1" data-name="P">
<path transform="matrix(1,0,0,-1,-789.0394,747.9422)" d="M 908.6996 740.7823 L 961.6594 740.7823 C 965.6269 740.7823 968.0073 740.7823 969.5943 740.1197 C 971.8821 739.287 973.6843 737.4849 974.517 735.1971 C 975.1795 733.6101 975.1795 731.2296 975.1795 727.2621 L 975.1795 674.3024 C 975.1795 670.3349 975.1795 667.9544 974.517 666.3674 C 973.6843 664.0797 971.8821 662.2775 969.5943 661.4448 C 968.0073 660.7823 965.6269 660.7823 961.6594 660.7823 L 908.6996 660.7823 C 904.7322 660.7823 902.3517 660.7823 900.7647 661.4448 C 898.4769 662.2775 896.6747 664.0797 895.8421 666.3674 C 895.1795 667.9544 895.1795 670.3349 895.1795 674.3024 L 895.1795 727.2621 C 895.1795 731.2296 895.1795 733.6101 895.8421 735.1971 C 896.6747 737.4849 898.4769 739.287 900.7647 740.1197 C 902.3517 740.7823 904.7322 740.7823 908.6996 740.7823 Z M 908.6996 740.7823 " fill="#3b96fa"/>
</g>
<g id="Layer-1" data-name="P">
<path transform="matrix(-.8320396,-.5547162,.5547162,-.8320396,143.61896,160.4607)" stroke-width="8" stroke-linecap="butt" stroke-dasharray="8,8" stroke-miterlimit="4" stroke-linejoin="miter" fill="none" stroke="#f7ae2b" d="M 0 0 L 117.905 0 "/>
</g>
<g id="Layer-1" data-name="P">
<path transform="matrix(.8330198,-.5532431,.5532431,.8330198,143.61896,160.4607)" stroke-width="8" stroke-linecap="butt" stroke-dasharray="8,8" stroke-miterlimit="4" stroke-linejoin="miter" fill="none" stroke="#f7ae2b" d="M 0 0 L 118.2189 0 "/>
</g>
<g id="Layer-1" data-name="P">
<path transform="matrix(0,-1,1,0,143.61896,162.4607)" stroke-width="8" stroke-linecap="butt" stroke-dasharray="8,8" stroke-miterlimit="4" stroke-linejoin="miter" fill="none" stroke="#f7ae2b" d="M 0 0 L 80 0 "/>
</g>
<g id="Layer-1" data-name="P">
</g>
<clipPath id="cp1">
<path transform="matrix(1,0,0,-1,-789.0394,747.9422)" d="M 919.5649 438.7525 L 950.79409 438.7525 L 950.79409 479.30934 L 919.5649 479.30934 Z "/>
</clipPath>
<g clip-path="url(#cp1)">
<path transform="matrix(1,0,0,-1,-789.0394,747.9422)" d="M 935.1795 478.3093 C 936.8843 478.3093 938.576 478.0111 940.178 477.428 C 944.2374 475.9505 947.4352 472.7527 948.9127 468.6932 C 949.6759 466.8918 949.7941 462.6229 949.7941 459.0309 C 949.7941 455.4389 949.6759 451.1701 948.9127 449.3686 C 947.4352 445.3092 944.2374 442.1114 940.178 440.6339 C 938.576 440.0508 936.8843 439.7525 935.1795 439.7525 C 933.4747 439.7525 931.783 440.0508 930.181 440.6339 C 926.1216 442.1114 922.9238 445.3092 921.4463 449.3686 C 920.6832 451.1701 920.5649 455.4389 920.5649 459.0309 C 920.5649 462.6229 920.6832 466.8918 921.4463 468.6932 C 922.9238 472.7527 926.1216 475.9505 930.181 477.428 C 931.783 478.0111 933.4747 478.3093 935.1795 478.3093 Z M 935.1795 478.3093 " fill="#8545dc"/>
</g>
<g id="Layer-1" data-name="P">
</g>
<clipPath id="cp2">
<path transform="matrix(1,0,0,-1,-789.0394,747.9422)" d="M 845.4261 466.7354 L 1024.933 466.7354 L 1024.933 594.33096 L 845.4261 594.33096 Z "/>
</clipPath>
<g clip-path="url(#cp2)">
<path transform="matrix(1,0,0,-1,-789.0394,747.9422)" d="M 896.0276 593.3308 L 974.3314 593.3308 C 988.887 593.3308 997.6203 593.3308 1003.442 590.9001 C 1011.836 587.8453 1018.447 581.2336 1021.502 572.8404 C 1023.933 567.0182 1023.933 558.2849 1023.933 543.7293 L 1023.933 517.3369 C 1023.933 502.7814 1023.933 494.0481 1021.502 488.2258 C 1018.447 479.8326 1011.836 473.221 1003.442 470.1661 C 997.6203 467.7354 988.887 467.7354 974.3314 467.7354 L 896.0276 467.7354 C 881.4721 467.7354 872.7388 467.7354 866.9165 470.1661 C 858.5233 473.221 851.9117 479.8326 848.8568 488.2258 C 846.4261 494.0481 846.4261 502.7814 846.4261 517.3369 L 846.4261 543.7293 C 846.4261 558.2849 846.4261 567.0182 848.8568 572.8404 C 851.9117 581.2336 858.5233 587.8453 866.9165 590.9001 C 872.7388 593.3308 881.4721 593.3308 896.0276 593.3308 Z M 896.0276 593.3308 " fill="#8545dc"/>
</g>
<g id="Layer-1" data-name="P">
</g>
<clipPath id="cp3">
<path transform="matrix(1,0,0,-1,-789.0394,747.9422)" d="M 859.0743 480.4689 L 1011.28469 480.4689 L 1011.28469 580.5973 L 859.0743 580.5973 Z "/>
</clipPath>
<g clip-path="url(#cp3)">
<path transform="matrix(1,0,0,-1,-789.0394,747.9422)" d="M 902.0483 579.5973 L 968.3108 579.5973 C 980.628 579.5973 988.0183 579.5973 992.9452 577.5404 C 1000.048 574.9553 1005.643 569.3604 1008.228 562.2578 C 1010.285 557.3309 1010.285 549.9406 1010.285 537.6234 L 1010.285 523.4428 C 1010.285 511.1256 1010.285 503.7353 1008.228 498.8084 C 1005.643 491.7059 1000.048 486.1109 992.9452 483.5258 C 988.0183 481.4689 980.628 481.4689 968.3108 481.4689 L 902.0483 481.4689 C 889.731 481.4689 882.3407 481.4689 877.4138 483.5258 C 870.3113 486.1109 864.7163 491.7059 862.1312 498.8084 C 860.0743 503.7353 860.0743 511.1256 860.0743 523.4428 L 860.0743 537.6234 C 860.0743 549.9406 860.0743 557.3309 862.1312 562.2578 C 864.7163 569.3604 870.3113 574.9553 877.4138 577.5404 C 882.3407 579.5973 889.731 579.5973 902.0483 579.5973 Z M 902.0483 579.5973 " fill="#ffffff"/>
</g>
<g id="Layer-1" data-name="P">
</g>
<clipPath id="cp4">
<path transform="matrix(1,0,0,-1,-789.0394,747.9422)" d="M 888.8352 438.7525 L 981.52389 438.7525 L 981.52389 453.30485 L 888.8352 453.30485 Z "/>
</clipPath>
<g clip-path="url(#cp4)">
<path transform="matrix(1,0,0,-1,-789.0394,747.9422)" d="M 899.4293 452.3049 L 970.9297 452.3049 C 973.662 452.3049 975.3013 452.3049 976.3943 451.9264 C 978.1376 451.2919 979.5108 449.9186 980.1454 448.1753 C 980.3958 447.4873 980.5239 446.7608 980.5239 446.0287 C 980.5239 445.2966 980.3958 444.5701 980.1454 443.8821 C 979.5108 442.1388 978.1376 440.7655 976.3943 440.131 C 975.3013 439.7525 973.662 439.7525 970.9297 439.7525 L 899.4293 439.7525 C 896.6971 439.7525 895.0577 439.7525 893.9648 440.131 C 892.2215 440.7655 890.8482 442.1388 890.2137 443.8821 C 889.9633 444.5701 889.8352 445.2966 889.8352 446.0287 C 889.8352 446.7608 889.9633 447.4873 890.2137 448.1753 C 890.8482 449.9186 892.2215 451.2919 893.9648 451.9264 C 895.0577 452.3049 896.6971 452.3049 899.4293 452.3049 Z M 899.4293 452.3049 " fill="#8545dc"/>
</g>
<g id="Layer-1" data-name="P">
</g>
<clipPath id="cp5">
<path transform="matrix(1,0,0,-1,-789.0394,747.9422)" d="M 854.0743 475.4689 L 1016.28469 475.4689 L 1016.28469 585.5973 L 854.0743 585.5973 Z "/>
</clipPath>
<g clip-path="url(#cp5)">
<path transform="matrix(1,0,0,-1,-789.0394,747.9422)" d="M 902.0483 579.5973 L 968.3108 579.5973 C 980.628 579.5973 988.0183 579.5973 992.9452 577.5404 C 1000.048 574.9553 1005.643 569.3604 1008.228 562.2578 C 1010.285 557.3309 1010.285 549.9406 1010.285 537.6234 L 1010.285 523.4428 C 1010.285 511.1256 1010.285 503.7353 1008.228 498.8084 C 1005.643 491.7059 1000.048 486.1109 992.9452 483.5258 C 988.0183 481.4689 980.628 481.4689 968.3108 481.4689 L 902.0483 481.4689 C 889.731 481.4689 882.3407 481.4689 877.4138 483.5258 C 870.3113 486.1109 864.7163 491.7059 862.1312 498.8084 C 860.0743 503.7353 860.0743 511.1256 860.0743 523.4428 L 860.0743 537.6234 C 860.0743 549.9406 860.0743 557.3309 862.1312 562.2578 C 864.7163 569.3604 870.3113 574.9553 877.4138 577.5404 C 882.3407 579.5973 889.731 579.5973 902.0483 579.5973 Z M 902.0483 579.5973 " fill="#3a97fa" fill-opacity=".4704"/>
<path transform="matrix(1,0,0,1,71.03485,168.34491)" stroke-width="10" stroke-linecap="butt" stroke-miterlimit="4" stroke-linejoin="miter" fill="none" stroke="#ffffff" d="M 41.97394 0 L 108.2364 0 C 120.5537 0 127.944 0 132.8709 2.05691 C 139.9734 4.642022 145.5684 10.23696 148.1535 17.3395 C 150.2104 22.26639 150.2104 29.65672 150.2104 41.97394 L 150.2104 56.15449 C 150.2104 68.47171 150.2104 75.86205 148.1535 80.78893 C 145.5684 87.89147 139.9734 93.48641 132.8709 96.07152 C 127.944 98.12843 120.5537 98.12843 108.2364 98.12843 L 41.97394 98.12843 C 29.65672 98.12843 22.26639 98.12843 17.3395 96.07152 C 10.23696 93.48641 4.642022 87.89147 2.05691 80.78893 C 0 75.86205 0 68.47171 0 56.15449 L 0 41.97394 C 0 29.65672 0 22.26639 2.05691 17.3395 C 4.642022 10.23696 10.23696 4.642022 17.3395 2.05691 C 22.26639 0 29.65672 0 41.97394 0 Z M 41.97394 0 "/>
</g>
<g id="Layer-1" data-name="P">
</g>
<clipPath id="cp6">
<path transform="matrix(1,0,0,-1,-789.0394,747.9422)" d="M 894.0158 553.8544 L 903.8253 560.9814 L 942.8911 507.2118 L 933.0817 500.0848 Z "/>
</clipPath>
<g clip-path="url(#cp6)">
<clipPath id="cp7">
<path transform="matrix(1,0,0,-1,-789.0394,747.9422)" d="M 0 0 L 1920 0 L 1920 1080 L 0 1080 Z "/>
</clipPath>
<g clip-path="url(#cp7)">
<path transform="matrix(1,0,0,-1,-789.0394,747.9422)" d="M 899.5083 556.6089 C 900.0252 556.9844 900.8571 557.4843 901.3676 557.6027 C 902.6443 557.9687 904.0175 557.7512 905.1186 557.0086 C 905.8219 556.532 906.5262 555.5626 907.7001 553.9468 L 937.3982 513.0709 C 938.5722 511.4551 939.2765 510.4856 939.5124 509.6695 C 939.8785 508.3928 939.661 507.0196 938.9183 505.9185 C 938.648 505.4696 937.9155 504.8329 937.3986 504.4574 C 936.8818 504.0818 936.0498 503.582 935.5394 503.4636 C 934.2627 503.0975 932.8895 503.315 931.7884 504.0577 C 931.0851 504.5342 930.3808 505.5037 929.2068 507.1194 L 899.5087 547.9954 C 898.3348 549.6111 897.6304 550.5806 897.3945 551.3967 C 897.0285 552.6734 897.246 554.0466 897.9887 555.1477 C 898.259 555.5966 898.9915 556.2333 899.5083 556.6089 Z M 899.5083 556.6089 " fill="#3b96fa" fill-opacity=".7599"/>
</g>
<g id="Layer-1" data-name="P">
</g>
</g>
<clipPath id="cp8">
<path transform="matrix(1,0,0,-1,-789.0394,747.9422)" d="M 923.5748 553.8544 L 933.3842 560.9814 L 972.4501 507.2118 L 962.6406 500.0848 Z "/>
</clipPath>
<g clip-path="url(#cp8)">
<clipPath id="cp9">
<path transform="matrix(1,0,0,-1,-789.0394,747.9422)" d="M 0 0 L 1920 0 L 1920 1080 L 0 1080 Z "/>
</clipPath>
<g clip-path="url(#cp9)">
<path transform="matrix(1,0,0,-1,-789.0394,747.9422)" d="M 929.0673 556.6089 C 929.5842 556.9844 930.4161 557.4843 930.9265 557.6027 C 932.2032 557.9687 933.5765 557.7512 934.6775 557.0086 C 935.3808 556.532 936.0852 555.5626 937.2591 553.9468 L 966.9572 513.0709 C 968.1311 511.4551 968.8355 510.4856 969.0714 509.6695 C 969.4375 508.3928 969.22 507.0196 968.4773 505.9185 C 968.2069 505.4696 967.4745 504.8329 966.9576 504.4574 C 966.4407 504.0818 965.6088 503.582 965.0983 503.4636 C 963.8216 503.0975 962.4484 503.315 961.3473 504.0577 C 960.6441 504.5342 959.9397 505.5037 958.7658 507.1194 L 929.0677 547.9954 C 927.8937 549.6111 927.1894 550.5806 926.9535 551.3967 C 926.5874 552.6734 926.8049 554.0466 927.5476 555.1477 C 927.8179 555.5966 928.5504 556.2333 929.0673 556.6089 Z M 929.0673 556.6089 " fill="#3b96fa" fill-opacity=".7599"/>
</g>
</g>
</g>
</g>
</svg>
