<?xml version="1.0" encoding="UTF-8" standalone="no"?>
<!DOCTYPE svg PUBLIC "-//W3C//DTD SVG 1.1//EN" "http://www.w3.org/Graphics/SVG/1.1/DTD/svg11.dtd">
<svg xmlns="http://www.w3.org/2000/svg" xmlns:xlink="http://www.w3.org/1999/xlink" version="1.1" width="785.81198pt" height="441.8775pt" viewBox="0 0 785.81198 441.8775">
<g enable-background="new">
<clipPath id="cp0">
<path transform="matrix(1,0,0,-1,-518.7021,758.6427)" d="M 0 0 L 1920 0 L 1920 1080 L 0 1080 Z "/>
</clipPath>
<g clip-path="url(#cp0)">
<path transform="matrix(1,0,0,-1,-518.7021,758.6427)" d="M 0 0 L 1920 0 L 1920 1080 L 0 1080 Z " fill="#ffffff"/>
<g id="Layer-1" data-name="P">
<path transform="matrix(1,0,0,-1,-518.7021,758.6427)" d="M 761.9173 681.606 L 917.9104 681.606 C 938.9004 681.606 951.4944 681.606 959.8904 678.1008 C 971.994 673.6955 981.5284 664.161 985.9338 652.0575 C 989.439 643.6615 989.439 631.0675 989.439 610.0774 L 989.439 399.2804 C 989.439 378.2904 989.439 365.6963 985.9338 357.3003 C 981.5284 345.1968 971.994 335.6623 959.8904 331.257 C 951.4944 327.7518 938.9004 327.7518 917.9104 327.7518 L 761.9173 327.7518 C 740.9273 327.7518 728.3333 327.7518 719.9372 331.257 C 707.8337 335.6623 698.2992 345.1968 693.8939 357.3003 C 690.3887 365.6963 690.3887 378.2904 690.3887 399.2804 L 690.3887 610.0774 C 690.3887 631.0675 690.3887 643.6615 693.8939 652.0575 C 698.2992 664.161 707.8337 673.6955 719.9372 678.1008 C 728.3333 681.606 740.9273 681.606 761.9173 681.606 Z M 761.9173 681.606 " fill="#8545dc"/>
</g>
<g id="Layer-1" data-name="P">
</g>
<clipPath id="cp1">
<path transform="matrix(1,0,0,-1,-518.7021,758.6427)" d="M 581.7498 712.6066 L 610.8349 703.6295 L 556.101 526.2953 L 527.0159 535.2723 Z "/>
</clipPath>
<g clip-path="url(#cp1)">
<clipPath id="cp2">
<path transform="matrix(1,0,0,-1,-518.7021,758.6427)" d="M 0 0 L 1920 0 L 1920 1080 L 0 1080 Z "/>
</clipPath>
<g clip-path="url(#cp2)">
<path transform="matrix(1,0,0,-1,-518.7021,758.6427)" d="M 584.0619 708.23 L 606.4583 701.3174 L 553.7889 530.6718 L 531.3925 537.5844 Z M 584.0619 708.23 " fill="#3fc59b"/>
<path transform="matrix(.9555219,.29492,-.29492,.9555219,65.3598,50.41272)" stroke-width="5" stroke-linecap="butt" stroke-miterlimit="4" stroke-linejoin="miter" fill="none" stroke="#ffffff" d="M 0 0 L 23.43894 0 L 23.43894 178.5889 L 0 178.5889 Z M 0 0 "/>
</g>
<g id="Layer-1" data-name="P">
</g>
</g>
<clipPath id="cp3">
<path transform="matrix(1,0,0,-1,-518.7021,758.6427)" d="M 595.4847 755.4889 L 623.6581 746.7933 L 609.5339 701.032 L 581.3606 709.7276 Z "/>
</clipPath>
<g clip-path="url(#cp3)">
<clipPath id="cp4">
<path transform="matrix(1,0,0,-1,-518.7021,758.6427)" d="M 0 0 L 1920 0 L 1920 1080 L 0 1080 Z "/>
</clipPath>
<g clip-path="url(#cp4)">
<path transform="matrix(1,0,0,-1,-518.7021,758.6427)" d="M 609.1 749.6137 L 606.5613 705.6124 L 586.3977 711.8359 Z M 609.1 749.6137 " fill="#f7ae2b"/>
<path transform="matrix(.9555219,.29492,-.29492,.9555219,80.31604,5.9172976)" stroke-width="5" stroke-linecap="butt" stroke-miterlimit="4" stroke-linejoin="miter" fill="none" stroke="#ffffff" d="M 10.55112 0 L 21.10223 42.79292 L 0 42.79292 Z M 10.55112 0 "/>
</g>
<g id="Layer-1" data-name="P">
</g>
</g>
<clipPath id="cp5">
<path transform="matrix(1,0,0,-1,-518.7021,758.6427)" d="M 528.7272 540.8167 L 557.8123 531.8396 L 550.7045 508.8109 L 521.6194 517.7879 Z "/>
</clipPath>
<g clip-path="url(#cp5)">
<clipPath id="cp6">
<path transform="matrix(1,0,0,-1,-518.7021,758.6427)" d="M 0 0 L 1920 0 L 1920 1080 L 0 1080 Z "/>
</clipPath>
<g clip-path="url(#cp6)">
<path transform="matrix(1,0,0,-1,-518.7021,758.6427)" d="M 531.0393 536.4401 L 553.4357 529.5275 L 548.3924 513.1874 L 525.9959 520.1 Z M 531.0393 536.4401 " fill="#fb6957"/>
<path transform="matrix(.9555219,.29492,-.29492,.9555219,12.337219,222.20258)" stroke-width="5" stroke-linecap="butt" stroke-miterlimit="4" stroke-linejoin="miter" fill="none" stroke="#ffffff" d="M 0 0 L 23.43894 0 L 23.43894 17.10071 L 0 17.10071 Z M 0 0 "/>
</g>
<g id="Layer-1" data-name="P">
</g>
</g>
<clipPath id="cp7">
<path transform="matrix(1,0,0,-1,-518.7021,758.6427)" d="M 693.6729 681.4853 L 984.8552 753.6223 L 1069.706 411.1219 L 778.5235 338.9849 Z "/>
</clipPath>
<g clip-path="url(#cp7)">
<clipPath id="cp8">
<path transform="matrix(1,0,0,-1,-518.7021,758.6427)" d="M 0 0 L 1920 0 L 1920 1080 L 0 1080 Z "/>
</clipPath>
<g clip-path="url(#cp8)">
<path transform="matrix(1,0,0,-1,-518.7021,758.6427)" d="M 739.2517 685.5653 L 942.6429 735.9531 C 953.5302 738.6503 960.0625 740.2686 964.8678 739.5294 C 971.7119 738.7997 977.8824 735.0794 981.7227 729.3676 C 984.6197 725.4631 986.238 718.9307 988.9352 708.0435 L 1052.036 453.3341 C 1054.734 442.4469 1056.352 435.9145 1055.613 431.1092 C 1054.883 424.2652 1051.163 418.0946 1045.451 414.2544 C 1041.546 411.3574 1035.014 409.7391 1024.127 407.0419 L 820.7357 356.6541 C 809.8484 353.9569 803.3161 352.3386 798.5108 353.0778 C 791.6668 353.8075 785.4962 357.5277 781.6559 363.2396 C 778.7589 367.1441 777.1406 373.6764 774.4434 384.5636 L 711.3421 639.273 C 708.645 650.1603 707.0266 656.6926 707.7659 661.4979 C 708.4956 668.342 712.2158 674.5125 717.9277 678.3528 C 721.8322 681.2498 728.3645 682.8681 739.2517 685.5653 Z M 739.2517 685.5653 " fill="#f6ae2b"/>
<path transform="matrix(.9706568,-.240469,.240469,.9706568,183.44873,82.26868)" stroke-width="12" stroke-linecap="butt" stroke-miterlimit="4" stroke-linejoin="miter" fill="none" stroke="#ffffff" d="M 38.22248 0 L 247.7623 0 C 258.9786 0 265.7084 0 270.195 1.873072 C 276.6627 4.227137 281.7576 9.322024 284.1117 15.78976 C 285.9847 20.27631 285.9847 27.00612 285.9847 38.22248 L 285.9847 300.6318 C 285.9847 311.8482 285.9847 318.578 284.1117 323.0645 C 281.7576 329.5323 276.6627 334.6271 270.195 336.9812 C 265.7084 338.8543 258.9786 338.8543 247.7623 338.8543 L 38.22248 338.8543 C 27.00612 338.8543 20.27631 338.8543 15.78976 336.9812 C 9.322024 334.6271 4.227137 329.5323 1.873072 323.0645 C 0 318.578 0 311.8482 0 300.6318 L 0 38.22248 C 0 27.00612 0 20.27631 1.873072 15.78976 C 4.227137 9.322024 9.322024 4.227137 15.78976 1.873072 C 20.27631 0 27.00612 0 38.22248 0 Z M 38.22248 0 "/>
</g>
<g id="Layer-1" data-name="P">
</g>
</g>
<clipPath id="cp9">
<path transform="matrix(1,0,0,-1,-518.7021,758.6427)" d="M 770.1378 739.823 L 890.0001 769.5175 L 903.8536 713.598 L 783.9912 683.9035 Z "/>
</clipPath>
<g clip-path="url(#cp9)">
<clipPath id="cp10">
<path transform="matrix(1,0,0,-1,-518.7021,758.6427)" d="M 0 0 L 1920 0 L 1920 1080 L 0 1080 Z "/>
</clipPath>
<g clip-path="url(#cp10)">
<path transform="matrix(1,0,0,-1,-518.7021,758.6427)" d="M 801.4521 742.4296 L 861.0905 757.2044 C 868.4487 759.0273 872.8637 760.121 876.0989 759.6719 C 880.8431 759.166 885.1205 756.5872 887.7826 752.6278 C 889.4127 750.548 890.783 745.5647 892.0736 740.3554 C 893.3641 735.1462 894.4786 730.0995 894.0079 727.4992 C 893.5021 722.755 890.9232 718.4776 886.9638 715.8155 C 884.3124 713.908 879.8975 712.8143 872.5392 710.9914 L 812.9008 696.2166 C 805.5426 694.3937 801.1276 693.3 797.8924 693.7491 C 793.1482 694.255 788.8708 696.8338 786.2087 700.7932 C 784.5786 702.873 783.2083 707.8564 781.9177 713.0656 C 780.6272 718.2748 779.5127 723.3215 779.9834 725.9218 C 780.4893 730.666 783.0681 734.9434 787.0275 737.6055 C 789.6789 739.513 794.0938 740.6067 801.4521 742.4296 Z M 801.4521 742.4296 " fill="#3b96fa"/>
<path transform="matrix(.9706568,-.240469,.240469,.9706568,257.49134,22.470582)" stroke-width="8" stroke-linecap="butt" stroke-miterlimit="4" stroke-linejoin="miter" fill="none" stroke="#ffffff" d="M 26.02228 0 L 87.46357 0 C 95.04425 0 99.59265 0 102.6249 1.213957 C 107.1083 2.845781 110.6401 6.377527 112.2719 10.86093 C 113.3541 13.27165 113.4858 18.4383 113.4858 23.80501 C 113.4858 29.17172 113.3541 34.33837 112.2719 36.74909 C 110.6401 41.23249 107.1083 44.76424 102.6249 46.39606 C 99.59265 47.61002 95.04425 47.61002 87.46357 47.61002 L 26.02228 47.61002 C 18.4416 47.61002 13.8932 47.61002 10.86093 46.39606 C 6.377527 44.76424 2.845781 41.23249 1.213957 36.74909 C .1317617 34.33837 0 29.17172 0 23.80501 C 0 18.4383 .1317617 13.27165 1.213957 10.86093 C 2.845781 6.377527 6.377527 2.845781 10.86093 1.213957 C 13.8932 0 18.4416 0 26.02228 0 Z M 26.02228 0 "/>
</g>
<g id="Layer-1" data-name="P">
</g>
</g>
<clipPath id="cp11">
<path transform="matrix(1,0,0,-1,-518.7021,758.6427)" d="M 760.1459 618.955 L 951.1551 666.2754 L 954.0407 654.6275 L 763.0315 607.3071 Z "/>
</clipPath>
<g clip-path="url(#cp11)">
<clipPath id="cp12">
<path transform="matrix(1,0,0,-1,-518.7021,758.6427)" d="M 0 0 L 1920 0 L 1920 1080 L 0 1080 Z "/>
</clipPath>
<g clip-path="url(#cp12)">
<path transform="matrix(.9706568,-.240469,.240469,.9706568,243.8573,145.27112)" stroke-width="10" stroke-linecap="butt" stroke-miterlimit="4" stroke-linejoin="miter" fill="none" stroke="#ffffff" d="M 0 0 L 194.7835 0 "/>
</g>
<g id="Layer-1" data-name="P">
</g>
</g>
<clipPath id="cp13">
<path transform="matrix(1,0,0,-1,-518.7021,758.6427)" d="M 783.3237 542.9863 L 970.2275 589.2895 L 973.1131 577.6416 L 786.2093 531.3384 Z "/>
</clipPath>
<g clip-path="url(#cp13)">
<clipPath id="cp14">
<path transform="matrix(1,0,0,-1,-518.7021,758.6427)" d="M 0 0 L 1920 0 L 1920 1080 L 0 1080 Z "/>
</clipPath>
<g clip-path="url(#cp14)">
<path transform="matrix(.9706568,-.240469,.240469,.9706568,267.0351,221.23993)" stroke-width="10" stroke-linecap="butt" stroke-miterlimit="4" stroke-linejoin="miter" fill="none" stroke="#ffffff" d="M 0 0 L 190.5539 0 "/>
</g>
<g id="Layer-1" data-name="P">
</g>
</g>
<clipPath id="cp15">
<path transform="matrix(1,0,0,-1,-518.7021,758.6427)" d="M 798.2906 464.9834 L 989.2998 512.3038 L 992.1854 500.6559 L 801.1762 453.3356 Z "/>
</clipPath>
<g clip-path="url(#cp15)">
<clipPath id="cp16">
<path transform="matrix(1,0,0,-1,-518.7021,758.6427)" d="M 0 0 L 1920 0 L 1920 1080 L 0 1080 Z "/>
</clipPath>
<g clip-path="url(#cp16)">
<path transform="matrix(.9706568,-.240469,.240469,.9706568,282.0019,299.2427)" stroke-width="10" stroke-linecap="butt" stroke-miterlimit="4" stroke-linejoin="miter" fill="none" stroke="#ffffff" d="M 0 0 L 194.7835 0 "/>
</g>
<g id="Layer-1" data-name="P">
</g>
</g>
<clipPath id="cp17">
<path transform="matrix(1,0,0,-1,-518.7021,758.6427)" d="M 736.6778 705.8444 L 935.4523 755.0885 L 946.7074 709.657 L 747.9329 660.4129 Z "/>
</clipPath>
<g clip-path="url(#cp17)">
<clipPath id="cp18">
<path transform="matrix(1,0,0,-1,-518.7021,758.6427)" d="M 0 0 L 1920 0 L 1920 1080 L 0 1080 Z "/>
</clipPath>
<g clip-path="url(#cp18)">
<path transform="matrix(1,0,0,-1,-518.7021,758.6427)" d="M 770.0392 708.9581 L 904.4956 742.2682 C 912.2719 744.1946 916.9377 745.3505 920.3151 745.0439 C 925.7241 744.4672 930.6008 741.527 933.6358 737.0128 C 934.8336 735.2314 935.7104 733.2541 936.2266 731.1704 C 936.7428 729.0867 936.8904 726.9288 936.6628 724.7942 C 936.0862 719.3852 933.146 714.5085 928.6318 711.4734 C 925.7881 709.6256 921.1224 708.4697 913.3461 706.5432 L 778.8896 673.2332 C 771.1133 671.3067 766.4475 670.1508 763.0701 670.4575 C 757.6612 671.0342 752.7845 673.9743 749.7494 678.4885 C 748.5517 680.27 747.6749 682.2473 747.1587 684.331 C 746.6425 686.4147 746.4948 688.5726 746.7224 690.7072 C 747.2991 696.1162 750.2392 700.9929 754.7535 704.0279 C 757.5971 705.8757 762.2629 707.0316 770.0392 708.9581 Z M 770.0392 708.9581 " fill="#3b96fa"/>
<path transform="matrix(.9706568,-.240469,.240469,.9706568,224.03131,56.44928)" stroke-width="8" stroke-linecap="butt" stroke-miterlimit="4" stroke-linejoin="miter" fill="none" stroke="#ffffff" d="M 28.13118 0 L 166.6523 0 C 174.6637 0 179.4705 0 182.675 1.109803 C 187.7866 2.970267 191.8132 6.996857 193.6737 12.10844 C 194.4079 14.12565 194.7835 16.25577 194.7835 18.40245 C 194.7835 20.54912 194.4079 22.67924 193.6737 24.69645 C 191.8132 29.80804 187.7866 33.83463 182.675 35.69509 C 179.4705 36.80489 174.6637 36.80489 166.6523 36.80489 L 28.13118 36.80489 C 20.11981 36.80489 15.31299 36.80489 12.10844 35.69509 C 6.996857 33.83463 2.970267 29.80804 1.109803 24.69645 C .3755976 22.67924 0 20.54912 0 18.40245 C 0 16.25577 .3755976 14.12565 1.109803 12.10844 C 2.970267 6.996857 6.996857 2.970267 12.10844 1.109803 C 15.31299 0 20.11981 0 28.13118 0 Z M 28.13118 0 "/>
</g>
<g id="Layer-1" data-name="P">
</g>
</g>
<clipPath id="cp19">
<path transform="matrix(1,0,0,-1,-518.7021,758.6427)" d="M 783.5703 719.9366 L 887.4044 745.6604 L 893.4336 721.3235 L 789.5995 695.5998 Z "/>
</clipPath>
<g clip-path="url(#cp19)">
<clipPath id="cp20">
<path transform="matrix(1,0,0,-1,-518.7021,758.6427)" d="M 0 0 L 1920 0 L 1920 1080 L 0 1080 Z "/>
</clipPath>
<g clip-path="url(#cp20)">
<path transform="matrix(1,0,0,-1,-518.7021,758.6427)" d="M 784.7814 719.2065 L 886.6743 744.4492 L 892.2225 722.0536 L 790.3297 696.8109 L 784.7814 719.2065 Z M 784.7814 719.2065 " fill="#3b96fa"/>
</g>
<g id="Layer-1" data-name="P">
</g>
</g>
<clipPath id="cp21">
<path transform="matrix(1,0,0,-1,-518.7021,758.6427)" d="M 654.7874 506.9169 L 680.4527 522.2906 L 775.8213 363.0798 L 750.1559 347.7061 Z "/>
</clipPath>
<g clip-path="url(#cp21)">
<clipPath id="cp22">
<path transform="matrix(1,0,0,-1,-518.7021,758.6427)" d="M 0 0 L 1920 0 L 1920 1080 L 0 1080 Z "/>
</clipPath>
<g clip-path="url(#cp22)">
<path transform="matrix(1,0,0,-1,-518.7021,758.6427)" d="M 659.5884 505.7129 L 679.2487 517.4895 L 771.0202 364.2838 L 751.3599 352.5072 Z M 659.5884 505.7129 " fill="#3fc59b"/>
<path transform="matrix(.857868,-.5138701,.5138701,.857868,140.88629,252.92981)" stroke-width="5" stroke-linecap="butt" stroke-miterlimit="4" stroke-linejoin="miter" fill="none" stroke="#ffffff" d="M 0 0 L 22.91755 0 L 22.91755 178.5889 L 0 178.5889 Z M 0 0 "/>
</g>
<g id="Layer-1" data-name="P">
</g>
</g>
<clipPath id="cp23">
<path transform="matrix(1,0,0,-1,-518.7021,758.6427)" d="M 632.058 545.7728 L 656.9203 560.6655 L 681.5238 519.5917 L 656.6615 504.699 Z "/>
</clipPath>
<g clip-path="url(#cp23)">
<clipPath id="cp24">
<path transform="matrix(1,0,0,-1,-518.7021,758.6427)" d="M 0 0 L 1920 0 L 1920 1080 L 0 1080 Z "/>
</clipPath>
<g clip-path="url(#cp24)">
<path transform="matrix(1,0,0,-1,-518.7021,758.6427)" d="M 645.3041 551.8586 L 676.1442 520.4492 L 658.444 509.8466 Z M 645.3041 551.8586 " fill="#f7ae2b"/>
<path transform="matrix(.857868,-.5138701,.5138701,.857868,117.75189,212.08539)" stroke-width="5" stroke-linecap="butt" stroke-miterlimit="4" stroke-linejoin="miter" fill="none" stroke="#ffffff" d="M 10.31641 0 L 20.63282 42.79292 L 0 42.79292 Z M 10.31641 0 "/>
</g>
<g id="Layer-1" data-name="P">
</g>
</g>
<clipPath id="cp25">
<path transform="matrix(1,0,0,-1,-518.7021,758.6427)" d="M 747.1742 352.6838 L 772.8395 368.0576 L 785.2242 347.3823 L 759.5589 332.0086 Z "/>
</clipPath>
<g clip-path="url(#cp25)">
<clipPath id="cp26">
<path transform="matrix(1,0,0,-1,-518.7021,758.6427)" d="M 0 0 L 1920 0 L 1920 1080 L 0 1080 Z "/>
</clipPath>
<g clip-path="url(#cp26)">
<path transform="matrix(1,0,0,-1,-518.7021,758.6427)" d="M 751.9753 351.4798 L 771.6356 363.2565 L 780.4231 348.5863 L 760.7629 336.8097 Z M 751.9753 351.4798 " fill="#fb6957"/>
<path transform="matrix(.857868,-.5138701,.5138701,.857868,233.2732,407.1629)" stroke-width="5" stroke-linecap="butt" stroke-miterlimit="4" stroke-linejoin="miter" fill="none" stroke="#ffffff" d="M 0 0 L 22.91755 0 L 22.91755 17.10071 L 0 17.10071 Z M 0 0 "/>
</g>
<g id="Layer-1" data-name="P">
</g>
</g>
<clipPath id="cp27">
<path transform="matrix(1,0,0,-1,-518.7021,758.6427)" d="M 1115.283 712.6066 L 1144.369 703.6295 L 1089.635 526.2953 L 1060.55 535.2723 Z "/>
</clipPath>
<g clip-path="url(#cp27)">
<clipPath id="cp28">
<path transform="matrix(1,0,0,-1,-518.7021,758.6427)" d="M 0 0 L 1920 0 L 1920 1080 L 0 1080 Z "/>
</clipPath>
<g clip-path="url(#cp28)">
<path transform="matrix(1,0,0,-1,-518.7021,758.6427)" d="M 1117.596 708.23 L 1139.992 701.3174 L 1087.323 530.6718 L 1064.926 537.5844 Z M 1117.596 708.23 " fill="#3fc59b"/>
<path transform="matrix(.9555219,.29492,-.29492,.9555219,598.89389,50.41272)" stroke-width="5" stroke-linecap="butt" stroke-miterlimit="4" stroke-linejoin="miter" fill="none" stroke="#ffffff" d="M 0 0 L 23.43894 0 L 23.43894 178.5889 L 0 178.5889 Z M 0 0 "/>
</g>
<g id="Layer-1" data-name="P">
</g>
</g>
<clipPath id="cp29">
<path transform="matrix(1,0,0,-1,-518.7021,758.6427)" d="M 1129.018 755.4889 L 1157.192 746.7933 L 1143.068 701.032 L 1114.894 709.7276 Z "/>
</clipPath>
<g clip-path="url(#cp29)">
<clipPath id="cp30">
<path transform="matrix(1,0,0,-1,-518.7021,758.6427)" d="M 0 0 L 1920 0 L 1920 1080 L 0 1080 Z "/>
</clipPath>
<g clip-path="url(#cp30)">
<path transform="matrix(1,0,0,-1,-518.7021,758.6427)" d="M 1142.634 749.6137 L 1140.095 705.6124 L 1119.931 711.8359 Z M 1142.634 749.6137 " fill="#f7ae2b"/>
<path transform="matrix(.9555219,.29492,-.29492,.9555219,613.8499,5.9172976)" stroke-width="5" stroke-linecap="butt" stroke-miterlimit="4" stroke-linejoin="miter" fill="none" stroke="#ffffff" d="M 10.55112 0 L 21.10223 42.79292 L 0 42.79292 Z M 10.55112 0 "/>
</g>
<g id="Layer-1" data-name="P">
</g>
</g>
<clipPath id="cp31">
<path transform="matrix(1,0,0,-1,-518.7021,758.6427)" d="M 1062.261 540.8167 L 1091.346 531.8396 L 1084.238 508.8109 L 1055.153 517.7879 Z "/>
</clipPath>
<g clip-path="url(#cp31)">
<clipPath id="cp32">
<path transform="matrix(1,0,0,-1,-518.7021,758.6427)" d="M 0 0 L 1920 0 L 1920 1080 L 0 1080 Z "/>
</clipPath>
<g clip-path="url(#cp32)">
<path transform="matrix(1,0,0,-1,-518.7021,758.6427)" d="M 1064.573 536.4401 L 1086.969 529.5275 L 1081.926 513.1874 L 1059.53 520.1 Z M 1064.573 536.4401 " fill="#fb6957"/>
<path transform="matrix(.9555219,.29492,-.29492,.9555219,545.8709,222.20258)" stroke-width="5" stroke-linecap="butt" stroke-miterlimit="4" stroke-linejoin="miter" fill="none" stroke="#ffffff" d="M 0 0 L 23.43894 0 L 23.43894 17.10071 L 0 17.10071 Z M 0 0 "/>
</g>
<g id="Layer-1" data-name="P">
</g>
</g>
<clipPath id="cp33">
<path transform="matrix(1,0,0,-1,-518.7021,758.6427)" d="M 0 0 L 1920 0 L 1920 1080 L 0 1080 Z "/>
</clipPath>
<g clip-path="url(#cp33)">
<path transform="matrix(1,0,0,-1,-518.7021,758.6427)" d="M 1177.511 533.9247 C 1172.56 534.9364 1167.732 531.7469 1166.72 526.7959 L 1133.592 364.6772 C 1132.58 359.7262 1135.769 354.8984 1140.72 353.8866 L 1250.009 331.5538 C 1254.96 330.5421 1259.774 333.7345 1260.786 338.6855 L 1293.914 500.8041 C 1294.881 505.7644 1291.694 510.5916 1286.743 511.6034 L 1177.511 533.9247 Z M 1182.541 518.1707 L 1275.978 499.0771 C 1277.643 498.7368 1278.77 497.1087 1278.42 495.3983 L 1273.442 471.0369 C 1273.102 469.3716 1271.463 468.2618 1269.752 468.6113 L 1176.315 487.7049 C 1174.65 488.0452 1173.537 489.6705 1173.887 491.3808 L 1178.865 515.7422 C 1179.205 517.4076 1180.831 518.5202 1182.541 518.1707 Z M 1260.806 459.4645 C 1261.931 459.2346 1262.647 458.1505 1262.417 457.0252 C 1262.187 455.9 1261.103 455.1837 1259.978 455.4137 C 1258.844 455.5986 1258.137 456.7278 1258.366 457.853 C 1258.596 458.9782 1259.681 459.6945 1260.806 459.4645 Z M 1174.203 476.6488 L 1187.34 473.9643 C 1189.095 473.6056 1190.239 471.8743 1189.88 470.119 L 1188.15 461.6515 C 1187.791 459.8962 1186.06 458.7524 1184.305 459.1111 L 1171.167 461.7957 C 1169.412 462.1544 1168.268 463.8856 1168.627 465.641 L 1170.357 474.1084 C 1170.716 475.8638 1172.447 477.0075 1174.203 476.6488 Z M 1200.758 471.2223 L 1214.12 468.4917 C 1215.876 468.133 1217.019 466.4018 1216.661 464.6464 L 1214.93 456.179 C 1214.572 454.4236 1212.841 453.2799 1211.085 453.6386 L 1197.723 456.3691 C 1195.968 456.7278 1194.824 458.459 1195.183 460.2144 L 1196.913 468.6818 C 1197.272 470.4372 1199.003 471.581 1200.758 471.2223 Z M 1227.398 465.7784 L 1240.774 463.045 C 1242.53 462.6863 1243.674 460.9551 1243.315 459.1997 L 1241.585 450.7323 C 1241.226 448.9769 1239.495 447.8332 1237.739 448.1919 L 1224.363 450.9253 C 1222.608 451.284 1221.464 453.0152 1221.823 454.7706 L 1223.553 463.238 C 1223.912 464.9934 1225.643 466.1372 1227.398 465.7784 Z M 1252.905 455.218 L 1266.506 452.4386 L 1265.833 449.1473 L 1252.232 451.9267 L 1252.905 455.218 Z M 1258.673 449.028 C 1259.798 448.798 1260.515 447.7139 1260.285 446.5886 C 1260.055 445.4634 1258.971 444.7472 1257.845 444.9771 C 1256.72 445.207 1256.004 446.2912 1256.234 447.4164 C 1256.464 448.5417 1257.548 449.2579 1258.673 449.028 Z M 1169.253 452.4281 L 1182.39 449.7435 C 1184.146 449.3848 1185.289 447.6536 1184.931 445.8982 L 1183.2 437.4308 C 1182.842 435.6754 1181.11 434.5317 1179.355 434.8904 L 1166.218 437.5749 C 1164.463 437.9336 1163.319 439.6649 1163.677 441.4202 L 1165.408 449.8877 C 1165.766 451.643 1167.498 452.7868 1169.253 452.4281 Z M 1195.809 447.0015 L 1209.171 444.271 C 1210.926 443.9123 1212.07 442.181 1211.711 440.4257 L 1209.981 431.9583 C 1209.622 430.2029 1207.891 429.0591 1206.136 429.4178 L 1192.774 432.1484 C 1191.018 432.5071 1189.874 434.2383 1190.233 435.9937 L 1191.963 444.4611 C 1192.322 446.2165 1194.053 447.3602 1195.809 447.0015 Z M 1222.449 441.5577 L 1235.825 438.8243 C 1237.58 438.4656 1238.724 436.7344 1238.365 434.979 L 1236.635 426.5116 C 1236.276 424.7562 1234.545 423.6124 1232.79 423.9712 L 1219.414 426.7046 C 1217.658 427.0633 1216.514 428.7945 1216.873 430.5499 L 1218.603 439.0173 C 1218.962 440.7727 1220.693 441.9164 1222.449 441.5577 Z M 1251.862 434.0526 L 1254.76 429.6652 L 1259.162 432.5609 L 1260.986 429.7997 L 1256.596 426.8871 L 1259.494 422.4997 L 1256.668 420.6449 L 1253.77 425.0323 L 1249.382 422.1337 L 1247.558 424.8949 L 1251.945 427.7934 L 1249.047 432.1808 L 1251.862 434.0526 Z M 1164.387 428.6152 L 1177.524 425.9307 C 1179.28 425.572 1180.423 423.8407 1180.065 422.0854 L 1178.337 413.632 C 1177.978 411.8767 1176.244 410.7188 1174.489 411.0775 L 1161.352 413.7621 C 1159.596 414.1208 1158.456 415.8661 1158.814 417.6215 L 1160.542 426.0748 C 1160.9 427.8302 1162.632 428.9739 1164.387 428.6152 Z M 1190.943 423.1887 L 1204.305 420.4581 C 1206.06 420.0994 1207.204 418.3682 1206.845 416.6128 L 1205.118 408.1595 C 1204.759 406.4041 1203.025 405.2462 1201.27 405.605 L 1187.907 408.3355 C 1186.152 408.6942 1185.011 410.4395 1185.37 412.1949 L 1187.097 420.6483 C 1187.456 422.4036 1189.187 423.5474 1190.943 423.1887 Z M 1217.583 417.7449 L 1230.959 415.0115 C 1232.714 414.6527 1233.858 412.9215 1233.499 411.1661 L 1231.772 402.7128 C 1231.413 400.9574 1229.679 399.7996 1227.924 400.1583 L 1214.547 402.8917 C 1212.792 403.2504 1211.651 404.9957 1212.01 406.7511 L 1213.737 415.2044 C 1214.096 416.9598 1215.827 418.1036 1217.583 417.7449 Z M 1242.92 406.5741 L 1256.508 403.7976 L 1255.835 400.5063 L 1242.248 403.2828 L 1242.92 406.5741 Z M 1159.524 404.8164 L 1172.661 402.1319 C 1174.416 401.7732 1175.557 400.0279 1175.198 398.2725 L 1173.471 389.8192 C 1173.112 388.0638 1171.381 386.9201 1169.626 387.2788 L 1156.489 389.9633 C 1154.733 390.322 1153.589 392.0532 1153.948 393.8086 L 1155.676 402.262 C 1156.034 404.0173 1157.768 405.1752 1159.524 404.8164 Z M 1186.079 399.3899 L 1199.442 396.6594 C 1201.197 396.3007 1202.338 394.5553 1201.979 392.8 L 1200.252 384.3466 C 1199.893 382.5913 1198.162 381.4475 1196.406 381.8062 L 1183.044 384.5367 C 1181.289 384.8954 1180.145 386.6267 1180.504 388.3821 L 1182.231 396.8354 C 1182.59 398.5908 1184.324 399.7486 1186.079 399.3899 Z M 1212.719 393.9461 L 1226.096 391.2127 C 1227.851 390.854 1228.992 389.1086 1228.633 387.3533 L 1226.906 378.8999 C 1226.547 377.1446 1224.816 376.0008 1223.06 376.3595 L 1209.684 379.0929 C 1207.929 379.4516 1206.785 381.1829 1207.144 382.9382 L 1208.871 391.3916 C 1209.23 393.147 1210.964 394.3048 1212.719 393.9461 Z M 1244.28 386.8375 L 1247.571 386.1649 L 1246.522 381.031 L 1251.642 379.9848 L 1250.969 376.6935 L 1245.849 377.7397 L 1244.792 372.5636 L 1241.5 373.2362 L 1242.558 378.4122 L 1237.424 379.4613 L 1238.097 382.7527 L 1243.23 381.7036 L 1244.28 386.8375 Z M 1154.709 381.0372 L 1194.584 372.8887 C 1196.34 372.53 1197.483 370.7988 1197.125 369.0434 L 1195.394 360.576 C 1195.036 358.8206 1193.304 357.6769 1191.549 358.0356 L 1151.673 366.184 C 1149.918 366.5427 1148.774 368.274 1149.133 370.0294 L 1150.863 378.4968 C 1151.222 380.2521 1152.953 381.3959 1154.709 381.0372 Z M 1207.862 370.1754 L 1221.238 367.442 C 1222.994 367.0833 1224.137 365.3521 1223.779 363.5967 L 1222.048 355.1293 C 1221.69 353.3739 1219.958 352.2302 1218.203 352.5889 L 1204.827 355.3223 C 1203.071 355.681 1201.928 357.4122 1202.286 359.1676 L 1204.017 367.635 C 1204.375 369.3904 1206.107 370.5341 1207.862 370.1754 Z M 1233.74 361.649 L 1247.327 358.8725 L 1246.658 355.5952 L 1233.07 358.3718 L 1233.74 361.649 Z M 1232.636 356.2479 L 1246.224 353.4714 L 1245.554 350.1941 L 1231.967 352.9706 L 1232.636 356.2479 Z M 1232.636 356.2479 " fill="#b2b2b2"/>
</g>
</g>
</g>
</svg>
