<?xml version="1.0" encoding="UTF-8" standalone="no"?>
<!DOCTYPE svg PUBLIC "-//W3C//DTD SVG 1.1//EN" "http://www.w3.org/Graphics/SVG/1.1/DTD/svg11.dtd">
<svg xmlns="http://www.w3.org/2000/svg" xmlns:xlink="http://www.w3.org/1999/xlink" version="1.1" width="377.87043pt" height="276.63163pt" viewBox="0 0 377.87043 276.63163">
<g enable-background="new">
<clipPath id="cp0">
<path transform="matrix(1,0,0,-1,-689.9495,788.3776)" d="M 0 0 L 1920 0 L 1920 1080 L 0 1080 Z "/>
</clipPath>
<g clip-path="url(#cp0)">
<path transform="matrix(1,0,0,-1,-689.9495,788.3776)" d="M 0 0 L 1920 0 L 1920 1080 L 0 1080 Z " fill="#ffffff"/>
<g id="Layer-1" data-name="P">
<path transform="matrix(1,0,0,-1,-689.9495,788.3776)" d="M 912.4908 744.6691 L 1010.068 744.6691 C 1014.314 744.6691 1016.861 744.6691 1018.56 743.9601 C 1021.008 743.0689 1022.937 741.1403 1023.828 738.6919 C 1024.537 736.9935 1024.537 734.4459 1024.537 730.1999 L 1024.537 631.9526 C 1024.537 627.7067 1024.537 625.1591 1023.828 623.4607 C 1022.937 621.0123 1021.008 619.0836 1018.56 618.1925 C 1016.861 617.4834 1014.314 617.4834 1010.068 617.4834 L 912.4908 617.4834 C 908.2448 617.4834 905.6972 617.4834 903.9988 618.1925 C 901.5505 619.0836 899.6218 621.0123 898.7307 623.4607 C 898.0216 625.1591 898.0216 627.7067 898.0216 631.9526 L 898.0216 730.1999 C 898.0216 734.4459 898.0216 736.9935 898.7307 738.6919 C 899.6218 741.1403 901.5505 743.0689 903.9988 743.9601 C 905.6972 744.6691 908.2448 744.6691 912.4908 744.6691 Z M 912.4908 744.6691 " fill="#3fc59b"/>
</g>
<g id="Layer-1" data-name="P">
<path transform="matrix(1,0,0,-1,-689.9495,788.3776)" d="M 1005.332 575.3737 L 1016.52 575.3737 C 1020.145 575.3737 1022.32 575.3737 1023.77 574.7684 C 1025.86 574.0077 1027.506 572.3612 1028.267 570.2712 C 1028.872 568.8213 1028.872 566.6466 1028.872 563.022 L 1028.872 559.4745 C 1028.872 555.8499 1028.872 553.6752 1028.267 552.2253 C 1027.506 550.1353 1025.86 548.4888 1023.77 547.7281 C 1022.32 547.1228 1020.145 547.1228 1016.52 547.1228 L 1005.332 547.1228 C 1001.707 547.1228 999.5325 547.1228 998.0826 547.7281 C 995.9926 548.4888 994.3462 550.1353 993.5854 552.2253 C 992.9802 553.6752 992.9802 555.8499 992.9802 559.4745 L 992.9802 563.022 C 992.9802 566.6466 992.9802 568.8213 993.5854 570.2712 C 994.3462 572.3612 995.9926 574.0077 998.0826 574.7684 C 999.5325 575.3737 1001.707 575.3737 1005.332 575.3737 Z M 1005.332 575.3737 " fill="#929292"/>
</g>
<g id="Layer-1" data-name="P">
<path transform="matrix(1,0,0,-1,-689.9495,788.3776)" d="M 1005.332 584.1433 L 1016.52 584.1433 C 1020.087 584.1433 1022.226 584.1433 1023.653 583.6026 C 1025.827 582.8111 1027.54 581.0983 1028.331 578.9239 C 1028.753 578.0047 1028.872 575.7293 1028.872 574.1265 C 1028.872 572.5238 1028.753 570.2483 1028.331 569.3292 C 1027.54 567.1548 1025.827 565.4419 1023.653 564.6505 C 1022.226 564.1097 1020.087 564.1097 1016.52 564.1097 L 1005.332 564.1097 C 1001.766 564.1097 999.6261 564.1097 998.1996 564.6505 C 996.0252 565.4419 994.3124 567.1548 993.521 569.3292 C 993.0995 570.2483 992.9802 572.5238 992.9802 574.1265 C 992.9802 575.7293 993.0995 578.0047 993.521 578.9239 C 994.3124 581.0983 996.0252 582.8111 998.1996 583.6026 C 999.6261 584.1433 1001.766 584.1433 1005.332 584.1433 Z M 1005.332 584.1433 " fill="#929292"/>
</g>
<g id="Layer-1" data-name="P">
<path transform="matrix(1,0,0,-1,-689.9495,788.3776)" d="M 910.3732 607.4239 L 1012.185 607.4239 C 1015.81 607.4239 1017.985 607.4239 1019.434 606.8186 C 1021.525 606.0579 1023.171 604.4115 1023.932 602.3214 C 1024.537 600.8716 1024.537 598.6969 1024.537 595.0723 L 1024.537 562.6876 C 1024.537 559.0631 1024.537 556.8883 1023.932 555.4385 C 1023.171 553.3484 1021.525 551.702 1019.434 550.9413 C 1017.985 550.336 1015.81 550.336 1012.185 550.336 L 910.3732 550.336 C 906.7487 550.336 904.5739 550.336 903.1241 550.9413 C 901.034 551.702 899.3876 553.3484 898.6269 555.4385 C 898.0216 556.8883 898.0216 559.0631 898.0216 562.6876 L 898.0216 595.0723 C 898.0216 598.6969 898.0216 600.8716 898.6269 602.3214 C 899.3876 604.4115 901.034 606.0579 903.1241 606.8186 C 904.5739 607.4239 906.7487 607.4239 910.3732 607.4239 Z M 910.3732 607.4239 " fill="#fb6958"/>
</g>
<g id="Layer-1" data-name="P">
<path transform="matrix(1,0,0,-1,-689.9495,788.3776)" d="M 1015.91 580.095 L 1128.362 580.095 C 1135.09 580.095 1139.128 580.095 1141.819 578.9713 C 1145.699 577.5591 1148.756 574.5026 1150.168 570.6226 C 1151.292 567.9311 1151.292 563.8938 1151.292 557.165 L 1151.292 503.0249 C 1151.292 496.2962 1151.292 492.2589 1150.168 489.5674 C 1148.756 485.6873 1145.699 482.6309 1141.819 481.2186 C 1139.128 480.095 1135.09 480.095 1128.362 480.095 L 1015.91 480.095 C 1009.181 480.095 1005.144 480.095 1002.453 481.2186 C 998.5725 482.6309 995.5161 485.6873 994.1038 489.5674 C 992.9802 492.2589 992.9802 496.2962 992.9802 503.0249 L 992.9802 557.165 C 992.9802 563.8938 992.9802 567.9311 994.1038 570.6226 C 995.5161 574.5026 998.5725 577.5591 1002.453 578.9713 C 1005.144 580.095 1009.181 580.095 1015.91 580.095 Z M 1015.91 580.095 " fill="#ffffff"/>
</g>
<g id="Layer-1" data-name="P">
<path transform="matrix(1,0,0,-1,-689.9495,788.3776)" d="M 758.6416 813.8255 L 825.9383 813.8255 C 829.5629 813.8255 831.7377 813.8255 833.1875 813.2202 C 835.2776 812.4595 836.924 810.8131 837.6847 808.723 C 838.29 807.2732 838.29 805.0984 838.29 801.4739 L 838.29 653.6541 C 838.29 650.0295 838.29 647.8548 837.6847 646.405 C 836.924 644.3149 835.2776 642.6685 833.1875 641.9078 C 831.7377 641.3025 829.5629 641.3025 825.9383 641.3025 L 758.6416 641.3025 C 755.017 641.3025 752.8423 641.3025 751.3925 641.9078 C 749.3024 642.6685 747.656 644.3149 746.8953 646.405 C 746.29 647.8548 746.29 650.0295 746.29 653.6541 L 746.29 801.4739 C 746.29 805.0984 746.29 807.2732 746.8953 808.723 C 747.656 810.8131 749.3024 812.4595 751.3925 813.2202 C 752.8423 813.8255 755.017 813.8255 758.6416 813.8255 Z M 758.6416 813.8255 " fill="#ffffff"/>
</g>
<g id="Layer-1" data-name="P">
<path transform="matrix(1,0,0,-1,-689.9495,788.3776)" d="M 771.2594 899.113 L 838.5561 899.113 C 842.1807 899.113 844.3555 899.113 845.8053 898.5077 C 847.8954 897.747 849.5418 896.1006 850.3025 894.0105 C 850.9078 892.5607 850.9078 890.3859 850.9078 886.7613 L 850.9078 738.9416 C 850.9078 735.317 850.9078 733.1423 850.3025 731.6924 C 849.5418 729.6024 847.8954 727.956 845.8053 727.1952 C 844.3555 726.59 842.1807 726.59 838.5561 726.59 L 771.2594 726.59 C 767.6348 726.59 765.4601 726.59 764.0103 727.1952 C 761.9202 727.956 760.2738 729.6024 759.5131 731.6924 C 758.9078 733.1423 758.9078 735.317 758.9078 738.9416 L 758.9078 886.7613 C 758.9078 890.3859 758.9078 892.5607 759.5131 894.0105 C 760.2738 896.1006 761.9202 897.747 764.0103 898.5077 C 765.4601 899.113 767.6348 899.113 771.2594 899.113 Z M 771.2594 899.113 " fill="#ffffff"/>
</g>
<g id="Layer-1" data-name="P">
<path transform="matrix(1,0,0,-1,-689.9495,788.3776)" d="M 798.7267 603.2483 L 863.8968 603.2483 C 866.6596 603.2483 868.3173 603.2483 869.4224 602.7869 C 871.0156 602.207 872.2705 600.9521 872.8504 599.3589 C 873.3118 598.2538 873.3118 596.5961 873.3118 593.8333 L 873.3118 528.6632 C 873.3118 525.9004 873.3118 524.2427 872.8504 523.1376 C 872.2705 521.5445 871.0156 520.2895 869.4224 519.7096 C 868.3173 519.2483 866.6596 519.2483 863.8968 519.2483 L 798.7267 519.2483 C 795.9639 519.2483 794.3062 519.2483 793.2011 519.7096 C 791.608 520.2895 790.353 521.5445 789.7731 523.1376 C 789.3118 524.2427 789.3118 525.9004 789.3118 528.6632 L 789.3118 593.8333 C 789.3118 596.5961 789.3118 598.2538 789.7731 599.3589 C 790.353 600.9521 791.608 602.207 793.2011 602.7869 C 794.3062 603.2483 795.9639 603.2483 798.7267 603.2483 Z M 798.7267 603.2483 " fill="#a5cffc"/>
<path transform="matrix(1,0,0,1,99.362308,185.12934)" stroke-width=".35" stroke-linecap="butt" stroke-miterlimit="4" stroke-linejoin="miter" fill="none" stroke="#ffffff" d="M 9.414977 0 L 74.58502 0 C 77.34784 0 79.00553 0 80.11066 .4613758 C 81.7038 1.04123 82.95877 2.296205 83.53862 3.889341 C 84 4.994468 84 6.652159 84 9.414977 L 84 74.58502 C 84 77.34784 84 79.00553 83.53862 80.11066 C 82.95877 81.7038 81.7038 82.95877 80.11066 83.53862 C 79.00553 84 77.34784 84 74.58502 84 L 9.414977 84 C 6.652159 84 4.994468 84 3.889341 83.53862 C 2.296205 82.95877 1.04123 81.7038 .4613758 80.11066 C 0 79.00553 0 77.34784 0 74.58502 L 0 9.414977 C 0 6.652159 0 4.994468 .4613758 3.889341 C 1.04123 2.296205 2.296205 1.04123 3.889341 .4613758 C 4.994468 0 6.652159 0 9.414977 0 Z M 9.414977 0 "/>
</g>
<g id="Layer-1" data-name="P">
<path transform="matrix(1,0,0,-1,-689.9495,788.3776)" d="M 706.7291 603.2483 L 771.8991 603.2483 C 774.6619 603.2483 776.3196 603.2483 777.4247 602.7869 C 779.0179 602.207 780.2729 600.9521 780.8527 599.3589 C 781.3141 598.2538 781.3141 596.5961 781.3141 593.8333 L 781.3141 528.6632 C 781.3141 525.9004 781.3141 524.2427 780.8527 523.1376 C 780.2729 521.5445 779.0179 520.2895 777.4247 519.7096 C 776.3196 519.2483 774.6619 519.2483 771.8991 519.2483 L 706.7291 519.2483 C 703.9662 519.2483 702.3086 519.2483 701.2034 519.7096 C 699.6103 520.2895 698.3553 521.5445 697.7755 523.1376 C 697.3141 524.2427 697.3141 525.9004 697.3141 528.6632 L 697.3141 593.8333 C 697.3141 596.5961 697.3141 598.2538 697.7755 599.3589 C 698.3553 600.9521 699.6103 602.207 701.2034 602.7869 C 702.3086 603.2483 703.9662 603.2483 706.7291 603.2483 Z M 706.7291 603.2483 " fill="#a5cffc"/>
<path transform="matrix(1,0,0,1,7.364563,185.12934)" stroke-width=".35" stroke-linecap="butt" stroke-miterlimit="4" stroke-linejoin="miter" fill="none" stroke="#ffffff" d="M 9.414977 0 L 74.58502 0 C 77.34784 0 79.00553 0 80.11066 .4613758 C 81.7038 1.04123 82.95877 2.296205 83.53862 3.889341 C 84 4.994468 84 6.652159 84 9.414977 L 84 74.58502 C 84 77.34784 84 79.00553 83.53862 80.11066 C 82.95877 81.7038 81.7038 82.95877 80.11066 83.53862 C 79.00553 84 77.34784 84 74.58502 84 L 9.414977 84 C 6.652159 84 4.994468 84 3.889341 83.53862 C 2.296205 82.95877 1.04123 81.7038 .4613758 80.11066 C 0 79.00553 0 77.34784 0 74.58502 L 0 9.414977 C 0 6.652159 0 4.994468 .4613758 3.889341 C 1.04123 2.296205 2.296205 1.04123 3.889341 .4613758 C 4.994468 0 6.652159 0 9.414977 0 Z M 9.414977 0 "/>
</g>
<g id="Layer-1" data-name="P">
<path transform="matrix(1,0,0,-1,-689.9495,788.3776)" d="M 709.448 693.0179 L 769.1801 693.0179 C 772.6787 693.0179 774.7779 693.0179 776.1773 692.4337 C 778.1947 691.6994 779.7839 690.1102 780.5182 688.0928 C 781.1024 686.6934 781.1024 684.5942 781.1024 681.0956 L 781.1024 621.2446 C 781.1024 617.746 781.1024 615.6468 780.5182 614.2474 C 779.7839 612.23 778.1947 610.6408 776.1773 609.9065 C 774.7779 609.3223 772.6787 609.3223 769.1801 609.3223 L 709.448 609.3223 C 705.9494 609.3223 703.8503 609.3223 702.4508 609.9065 C 700.4334 610.6408 698.8442 612.23 698.1099 614.2474 C 697.5257 615.6468 697.5257 617.746 697.5257 621.2446 L 697.5257 681.0956 C 697.5257 684.5942 697.5257 686.6934 698.1099 688.0928 C 698.8442 690.1102 700.4334 691.6994 702.4508 692.4337 C 703.8503 693.0179 705.9494 693.0179 709.448 693.0179 Z M 709.448 693.0179 " fill="#a5cffc"/>
<path transform="matrix(1,0,0,1,7.576172,95.35974)" stroke-width=".35" stroke-linecap="butt" stroke-miterlimit="4" stroke-linejoin="miter" fill="none" stroke="#ffffff" d="M 11.92232 0 L 71.65442 0 C 75.15301 0 77.25217 0 78.65161 .5842467 C 80.66902 1.318524 82.25821 2.907717 82.99249 4.925128 C 83.57674 6.324566 83.57674 8.423723 83.57674 11.92232 L 83.57674 71.77336 C 83.57674 75.27196 83.57674 77.37111 82.99249 78.77055 C 82.25821 80.78796 80.66902 82.37715 78.65161 83.11143 C 77.25217 83.69568 75.15301 83.69568 71.65442 83.69568 L 11.92232 83.69568 C 8.423723 83.69568 6.324566 83.69568 4.925128 83.11143 C 2.907717 82.37715 1.318524 80.78796 .5842467 78.77055 C 0 77.37111 0 75.27196 0 71.77336 L 0 11.92232 C 0 8.423723 0 6.324566 .5842467 4.925128 C 1.318524 2.907717 2.907717 1.318524 4.925128 .5842467 C 6.324566 0 8.423723 0 11.92232 0 Z M 11.92232 0 "/>
</g>
<g id="Layer-1" data-name="P">
<path transform="matrix(1,0,0,-1,-689.9495,788.3776)" d="M 890.691 560.7518 L 955.9278 560.7518 C 958.6808 560.7518 960.3326 560.7518 961.4338 560.292 C 963.0213 559.7142 964.2718 558.4637 964.8496 556.8762 C 965.3094 555.775 965.3094 554.1232 965.3094 551.3702 L 965.3094 528.6299 C 965.3094 525.8768 965.3094 524.225 964.8496 523.1238 C 964.2718 521.5363 963.0213 520.2858 961.4338 519.708 C 960.3326 519.2483 958.6808 519.2483 955.9278 519.2483 L 890.691 519.2483 C 887.938 519.2483 886.2861 519.2483 885.1849 519.708 C 883.5975 520.2858 882.3469 521.5363 881.7691 523.1238 C 881.3094 524.225 881.3094 525.8768 881.3094 528.6299 L 881.3094 551.3702 C 881.3094 554.1232 881.3094 555.775 881.7691 556.8762 C 882.3469 558.4637 883.5975 559.7142 885.1849 560.292 C 886.2861 560.7518 887.938 560.7518 890.691 560.7518 Z M 890.691 560.7518 " fill="#a5cffc"/>
<path transform="matrix(1,0,0,1,191.35987,227.62586)" stroke-width=".35" stroke-linecap="butt" stroke-miterlimit="4" stroke-linejoin="miter" fill="none" stroke="#ffffff" d="M 9.381596 0 L 74.6184 0 C 77.37143 0 79.02324 0 80.12445 .4597399 C 81.71194 1.037538 82.96246 2.288063 83.54026 3.875551 C 84 4.97676 84 6.628574 84 9.381596 L 84 32.12191 C 84 34.87493 84 36.52675 83.54026 37.62795 C 82.96246 39.21544 81.71194 40.46597 80.12445 41.04377 C 79.02324 41.50351 77.37143 41.50351 74.6184 41.50351 L 9.381596 41.50351 C 6.628574 41.50351 4.97676 41.50351 3.875551 41.04377 C 2.288063 40.46597 1.037538 39.21544 .4597399 37.62795 C 0 36.52675 0 34.87493 0 32.12191 L 0 9.381596 C 0 6.628574 0 4.97676 .4597399 3.875551 C 1.037538 2.288063 2.288063 1.037538 3.875551 .4597399 C 4.97676 0 6.628574 0 9.381596 0 Z M 9.381596 0 "/>
</g>
<g id="Layer-1" data-name="P">
<path transform="matrix(1,0,0,-1,-689.9495,788.3776)" d="M 719.8646 553.7237 L 828.6203 610.0973 C 832.7349 612.2302 835.2037 613.5099 837.1451 613.793 C 840.2657 614.1983 843.4058 613.2022 845.7222 611.0722 C 846.6363 610.2316 847.3963 609.2376 847.9678 608.135 C 848.5393 607.0325 848.9135 605.8384 849.0734 604.6069 C 849.4787 601.4863 848.4826 598.3462 846.3526 596.0298 C 845.0022 594.6067 842.5334 593.327 838.4187 591.1941 L 729.6631 534.8206 C 725.5484 532.6877 723.0796 531.408 721.1383 531.1249 C 718.0176 530.7196 714.8776 531.7157 712.5612 533.8457 C 711.6471 534.6863 710.887 535.6803 710.3155 536.7829 C 709.744 537.8854 709.3699 539.0794 709.2099 540.311 C 708.8046 543.4316 709.8007 546.5717 711.9307 548.888 C 713.2811 550.3112 715.7499 551.5909 719.8646 553.7237 Z M 719.8646 553.7237 " fill="#f6ae2b"/>
<path transform="matrix(.8878154,-.4601998,.4601998,.8878154,15.466797,242.14325)" stroke-width="7" stroke-linecap="butt" stroke-miterlimit="4" stroke-linejoin="miter" fill="none" stroke="#ffffff" d="M 16.274 0 L 138.772 0 C 143.4066 0 146.1874 0 148.0413 .6420258 C 150.9983 1.718312 153.3277 4.047711 154.404 7.004782 C 154.8288 8.171748 155.046 9.404031 155.046 10.64589 C 155.046 11.88775 154.8288 13.12003 154.404 14.287 C 153.3277 17.24407 150.9983 19.57347 148.0413 20.64976 C 146.1874 21.29178 143.4066 21.29178 138.772 21.29178 L 16.274 21.29178 C 11.63939 21.29178 8.858626 21.29178 7.004782 20.64976 C 4.047711 19.57347 1.718312 17.24407 .6420258 14.287 C .2172848 13.12003 0 11.88775 0 10.64589 C 0 9.404031 .2172848 8.171748 .6420258 7.004782 C 1.718312 4.047711 4.047711 1.718312 7.004782 .6420258 C 8.858626 0 11.63939 0 16.274 0 Z M 16.274 0 "/>
</g>
<g id="Layer-1" data-name="P">
<path transform="matrix(1,0,0,-1,-689.9495,788.3776)" d="M 717.1347 562.3708 L 768.7687 589.1353 C 774.2905 591.9975 777.6035 593.7148 780.2595 593.9969 C 784.1962 594.5082 788.1573 593.2516 791.0794 590.5646 C 792.6172 589.3657 794.7078 585.6765 796.3565 582.496 C 798.0051 579.3155 799.8146 575.4806 799.9078 573.533 C 800.4191 569.5963 799.1625 565.6351 796.4755 562.713 C 794.7141 560.7053 791.401 558.9879 785.8793 556.1257 L 734.2452 529.3612 C 728.7235 526.499 725.4104 524.7817 722.7545 524.4997 C 718.8178 523.9884 714.8566 525.2449 711.9345 527.9319 C 710.3968 529.1308 708.3061 532.82 706.6575 536.0005 C 705.0089 539.181 703.1994 543.016 703.1062 544.9636 C 702.5949 548.9002 703.8514 552.8614 706.5385 555.7835 C 708.2999 557.7913 711.6129 559.5086 717.1347 562.3708 Z M 717.1347 562.3708 " fill="#8646dc"/>
<path transform="matrix(.8878154,-.4601998,.4601998,.8878154,8.152649,235.87232)" stroke-width="7" stroke-linecap="butt" stroke-miterlimit="4" stroke-linejoin="miter" fill="none" stroke="#ffffff" d="M 21.43742 0 L 79.59594 0 C 85.81542 0 89.5471 0 92.03489 .9718801 C 95.76523 2.32961 98.70375 5.268136 100.0615 8.998469 C 100.875 10.77047 101.0334 15.00794 101.0334 18.59033 C 101.0334 22.17272 100.875 26.41019 100.0615 28.1822 C 98.70375 31.91253 95.76523 34.85105 92.03489 36.20878 C 89.5471 37.18066 85.81542 37.18066 79.59594 37.18066 L 21.43742 37.18066 C 15.21794 37.18066 11.48626 37.18066 8.998469 36.20878 C 5.268136 34.85105 2.32961 31.91253 .9718801 28.1822 C .1583633 26.41019 0 22.17272 0 18.59033 C 0 15.00794 .1583633 10.77047 .9718801 8.998469 C 2.32961 5.268136 5.268136 2.32961 8.998469 .9718801 C 11.48626 0 15.21794 0 21.43742 0 Z M 21.43742 0 "/>
</g>
<g id="Layer-1" data-name="P">
<path transform="matrix(1,0,0,-1,-689.9495,788.3776)" d="M 1037.11 775.1983 L 1067.744 775.1983 C 1071.551 775.1983 1073.836 775.1983 1075.359 774.5625 C 1077.554 773.7635 1079.283 772.034 1080.083 769.8386 C 1080.718 768.3157 1080.718 766.0313 1080.718 762.224 L 1080.718 759.9219 C 1080.718 756.1145 1080.718 753.8302 1080.083 752.3072 C 1079.283 750.1118 1077.554 748.3824 1075.359 747.5833 C 1073.836 746.9475 1071.551 746.9475 1067.744 746.9475 L 1037.11 746.9475 C 1033.303 746.9475 1031.019 746.9475 1029.496 747.5833 C 1027.3 748.3824 1025.571 750.1118 1024.772 752.3072 C 1024.136 753.8302 1024.136 756.1145 1024.136 759.9219 L 1024.136 762.224 C 1024.136 766.0313 1024.136 768.3157 1024.772 769.8386 C 1025.571 772.034 1027.3 773.7635 1029.496 774.5625 C 1031.019 775.1983 1033.303 775.1983 1037.11 775.1983 Z M 1037.11 775.1983 " fill="#ffffff"/>
</g>
<g id="Layer-1" data-name="P">
<path transform="matrix(1,0,0,-1,-689.9495,788.3776)" d="M 1381.706 891.2465 L 1412.415 891.2465 C 1416.211 891.2465 1418.489 891.2465 1420.007 890.6126 C 1422.196 889.8158 1423.921 888.0914 1424.717 885.9023 C 1425.351 884.3838 1425.351 882.106 1425.351 878.3097 L 1425.351 782.1112 C 1425.351 778.3149 1425.351 776.0371 1424.717 774.5186 C 1423.921 772.3295 1422.196 770.6051 1420.007 769.8084 C 1418.489 769.1744 1416.211 769.1744 1412.415 769.1744 L 1381.706 769.1744 C 1377.909 769.1744 1375.632 769.1744 1374.113 769.8084 C 1371.924 770.6051 1370.2 772.3295 1369.403 774.5186 C 1368.769 776.0371 1368.769 778.3149 1368.769 782.1112 L 1368.769 878.3097 C 1368.769 882.106 1368.769 884.3838 1369.403 885.9023 C 1370.2 888.0914 1371.924 889.8158 1374.113 890.6126 C 1375.632 891.2465 1377.909 891.2465 1381.706 891.2465 Z M 1381.706 891.2465 " fill="#8546dc"/>
</g>
<g id="Layer-1" data-name="P">
<path transform="matrix(1,0,0,-1,-689.9495,788.3776)" d="M 798.7267 693.7592 L 830.6134 693.7592 C 833.3762 693.7592 835.0339 693.7592 836.139 693.2978 C 837.7322 692.718 838.9871 691.463 839.567 689.8699 C 840.0284 688.7647 840.0284 687.1071 840.0284 684.3442 L 840.0284 619.1742 C 840.0284 616.4114 840.0284 614.7537 839.567 613.6486 C 838.9871 612.0554 837.7322 610.8004 836.139 610.2206 C 835.0339 609.7592 833.3762 609.7592 830.6134 609.7592 L 798.7267 609.7592 C 795.9639 609.7592 794.3062 609.7592 793.2011 610.2206 C 791.608 610.8004 790.353 612.0554 789.7731 613.6486 C 789.3118 614.7537 789.3118 616.4114 789.3118 619.1742 L 789.3118 684.3442 C 789.3118 687.1071 789.3118 688.7647 789.7731 689.8699 C 790.353 691.463 791.608 692.718 793.2011 693.2978 C 794.3062 693.7592 795.9639 693.7592 798.7267 693.7592 Z M 798.7267 693.7592 " fill="#a5cffc"/>
<path transform="matrix(1,0,0,1,99.362308,94.61841)" stroke-width=".35" stroke-linecap="butt" stroke-miterlimit="4" stroke-linejoin="miter" fill="none" stroke="#ffffff" d="M 9.414977 0 L 41.30162 0 C 44.06444 0 45.72213 0 46.82725 .4613758 C 48.42039 1.04123 49.67536 2.296205 50.25522 3.889341 C 50.71659 4.994468 50.71659 6.652159 50.71659 9.414977 L 50.71659 74.58502 C 50.71659 77.34784 50.71659 79.00553 50.25522 80.11066 C 49.67536 81.7038 48.42039 82.95877 46.82725 83.53862 C 45.72213 84 44.06444 84 41.30162 84 L 9.414977 84 C 6.652159 84 4.994468 84 3.889341 83.53862 C 2.296205 82.95877 1.04123 81.7038 .4613758 80.11066 C 0 79.00553 0 77.34784 0 74.58502 L 0 9.414977 C 0 6.652159 0 4.994468 .4613758 3.889341 C 1.04123 2.296205 2.296205 1.04123 3.889341 .4613758 C 4.994468 0 6.652159 0 9.414977 0 Z M 9.414977 0 "/>
</g>
<g id="Layer-1" data-name="P">
<path transform="matrix(1,0,0,-1,-689.9495,788.3776)" d="M 853.2211 748.3866 L 873.495 748.3866 C 877.2913 748.3866 879.569 748.3866 881.0876 747.7526 C 883.2767 746.9559 885.0011 745.2315 885.7978 743.0424 C 886.4318 741.5238 886.4318 739.2461 886.4318 735.4498 L 886.4318 632.2653 C 886.4318 628.469 886.4318 626.1912 885.7978 624.6727 C 885.0011 622.4836 883.2767 620.7592 881.0876 619.9624 C 879.569 619.3284 877.2913 619.3284 873.495 619.3284 L 853.2211 619.3284 C 849.4248 619.3284 847.1471 619.3284 845.6285 619.9624 C 843.4394 620.7592 841.715 622.4836 840.9183 624.6727 C 840.2843 626.1912 840.2843 628.469 840.2843 632.2653 L 840.2843 735.4498 C 840.2843 739.2461 840.2843 741.5238 840.9183 743.0424 C 841.715 745.2315 843.4394 746.9559 845.6285 747.7526 C 847.1471 748.3866 849.4248 748.3866 853.2211 748.3866 Z M 853.2211 748.3866 " fill="#fb6958"/>
</g>
<g id="Layer-1" data-name="P">
<path transform="matrix(1,0,0,-1,-689.9495,788.3776)" d="M 858.9783 607.2169 L 878.9957 607.2169 C 881.3249 607.2169 882.7224 607.2169 883.6541 606.8279 C 884.9972 606.339 886.0552 605.281 886.544 603.9379 C 886.933 603.0063 886.933 601.6087 886.933 599.2796 L 886.933 589.5914 C 886.933 587.2622 886.933 585.8647 886.544 584.933 C 886.0552 583.5899 884.9972 582.5319 883.6541 582.0431 C 882.7224 581.6541 881.3249 581.6541 878.9957 581.6541 L 858.9783 581.6541 C 856.6491 581.6541 855.2516 581.6541 854.3199 582.0431 C 852.9768 582.5319 851.9188 583.5899 851.43 584.933 C 851.041 585.8647 851.041 587.2622 851.041 589.5914 L 851.041 599.2796 C 851.041 601.6087 851.041 603.0063 851.43 603.9379 C 851.9188 605.281 852.9768 606.339 854.3199 606.8279 C 855.2516 607.2169 856.6491 607.2169 858.9783 607.2169 Z M 858.9783 607.2169 " fill="#3fc59b"/>
</g>
<g id="Layer-1" data-name="P">
<path transform="matrix(1,0,0,1,137.04157,13.780212)" stroke-width="24" stroke-linecap="butt" stroke-miterlimit="4" stroke-linejoin="miter" fill="none" stroke="#f6ae2b" d="M 191.5514 32.86502 C 235.3714 76.68506 235.3714 147.7314 191.5514 191.5514 C 147.7314 235.3714 76.68506 235.3714 32.86502 191.5514 C -10.95501 147.7314 -10.95501 76.68506 32.86502 32.86502 C 76.68506 -10.95501 147.7314 -10.95501 191.5514 32.86502 Z M 191.5514 32.86502 "/>
</g>
<g id="Layer-1" data-name="P">
<path transform="matrix(1,0,0,1,149.09168,25.830323)" stroke-width="7" stroke-linecap="butt" stroke-miterlimit="4" stroke-linejoin="miter" fill="none" stroke="#ffffff" d="M 170.9805 29.33562 C 210.0947 68.44978 210.0947 131.8664 170.9805 170.9805 C 131.8664 210.0947 68.44978 210.0947 29.33562 170.9805 C -9.778541 131.8664 -9.778541 68.44978 29.33562 29.33562 C 68.44978 -9.778541 131.8664 -9.778541 170.9805 29.33562 Z M 170.9805 29.33562 "/>
</g>
<g id="Layer-1" data-name="P">
<path transform="matrix(1,0,0,1,124.47058,1.2092285)" stroke-width="7" stroke-linecap="butt" stroke-miterlimit="4" stroke-linejoin="miter" fill="none" stroke="#ffffff" d="M 213.0114 36.54697 C 261.7407 85.27627 261.7407 164.2821 213.0114 213.0114 C 164.2821 261.7407 85.27627 261.7407 36.54697 213.0114 C -12.18232 164.2821 -12.18232 85.27627 36.54697 36.54697 C 85.27627 -12.18232 164.2821 -12.18232 213.0114 36.54697 Z M 213.0114 36.54697 "/>
</g>
<g id="Layer-1" data-name="P">
<path transform="matrix(1,0,0,-1,-689.9495,788.3776)" d="M 1603.111 673.9077 L 1757.962 673.9077 C 1786.746 673.9077 1804.017 673.9077 1815.531 669.1009 C 1832.129 663.0597 1845.204 649.9847 1851.245 633.3866 C 1856.052 621.8728 1856.052 604.6021 1856.052 575.8177 L 1856.052 542.6788 C 1856.052 513.8944 1856.052 496.6237 1851.245 485.1099 C 1845.204 468.5118 1832.129 455.4368 1815.531 449.3956 C 1804.017 444.5888 1786.746 444.5888 1757.962 444.5888 L 1603.111 444.5888 C 1574.327 444.5888 1557.056 444.5888 1545.542 449.3956 C 1528.944 455.4368 1515.869 468.5118 1509.828 485.1099 C 1505.021 496.6237 1505.021 513.8944 1505.021 542.6788 L 1505.021 575.8177 C 1505.021 604.6021 1505.021 621.8728 1509.828 633.3866 C 1515.869 649.9847 1528.944 663.0597 1545.542 669.1009 C 1557.056 673.9077 1574.327 673.9077 1603.111 673.9077 Z M 1603.111 673.9077 " fill="#3a97fa" fill-opacity=".4704"/>
<path transform="matrix(1,0,0,1,815.0715,114.46991)" stroke-width="10" stroke-linecap="butt" stroke-miterlimit="4" stroke-linejoin="miter" fill="none" stroke="#ffffff" d="M 98.09002 0 L 252.9406 0 C 281.7251 0 298.9957 0 310.5095 4.806848 C 327.1076 10.84806 340.1826 23.92303 346.2238 40.52113 C 351.0306 52.03491 351.0306 69.30558 351.0306 98.09002 L 351.0306 131.2289 C 351.0306 160.0134 351.0306 177.284 346.2238 188.7978 C 340.1826 205.3959 327.1076 218.4709 310.5095 224.5121 C 298.9957 229.3189 281.7251 229.3189 252.9406 229.3189 L 98.09002 229.3189 C 69.30558 229.3189 52.03491 229.3189 40.52113 224.5121 C 23.92303 218.4709 10.84806 205.3959 4.806848 188.7978 C 0 177.284 0 160.0134 0 131.2289 L 0 98.09002 C 0 69.30558 0 52.03491 4.806848 40.52113 C 10.84806 23.92303 23.92303 10.84806 40.52113 4.806848 C 52.03491 0 69.30558 0 98.09002 0 Z M 98.09002 0 "/>
</g>
</g>
</g>
</svg>
