<?xml version="1.0" encoding="UTF-8" standalone="no"?>
<!DOCTYPE svg PUBLIC "-//W3C//DTD SVG 1.1//EN" "http://www.w3.org/Graphics/SVG/1.1/DTD/svg11.dtd">
<svg xmlns="http://www.w3.org/2000/svg" xmlns:xlink="http://www.w3.org/1999/xlink" version="1.1" width="294.68824pt" height="717.2141pt" viewBox="0 0 294.68824 717.2141">
<g enable-background="new">
<clipPath id="cp0">
<path transform="matrix(1,0,0,-1,-711.0818,983.2371)" d="M 0 0 L 1920 0 L 1920 1080 L 0 1080 Z "/>
</clipPath>
<g clip-path="url(#cp0)">
<path transform="matrix(1,0,0,-1,-711.0818,983.2371)" d="M 0 0 L 1920 0 L 1920 1080 L 0 1080 Z " fill="#ffffff"/>
<g id="Layer-1" data-name="P">
<path transform="matrix(1,0,0,-1,-711.0818,983.2371)" d="M 813.8885 709.3609 L 874.9757 709.3609 C 877.7506 709.3609 879.4156 709.3609 880.5256 708.8975 C 882.1258 708.3151 883.3863 707.0546 883.9687 705.4544 C 884.4321 704.3445 884.4321 702.6795 884.4321 699.9045 L 884.4321 638.8173 C 884.4321 636.0423 884.4321 634.3773 883.9687 633.2674 C 883.3863 631.6672 882.1258 630.4067 880.5256 629.8243 C 879.4156 629.3609 877.7506 629.3609 874.9757 629.3609 L 813.8885 629.3609 C 811.1135 629.3609 809.4485 629.3609 808.3385 629.8243 C 806.7384 630.4067 805.4779 631.6672 804.8955 633.2674 C 804.4321 634.3773 804.4321 636.0423 804.4321 638.8173 L 804.4321 699.9045 C 804.4321 702.6795 804.4321 704.3445 804.8955 705.4544 C 805.4779 707.0546 806.7384 708.3151 808.3385 708.8975 C 809.4485 709.3609 811.1135 709.3609 813.8885 709.3609 Z M 813.8885 709.3609 " fill="#a5cffd"/>
<path transform="matrix(1,0,0,1,93.35034,273.87623)" stroke-width="7" stroke-linecap="butt" stroke-miterlimit="4" stroke-linejoin="miter" fill="none" stroke="#ffffff" d="M 9.45641 0 L 70.54359 0 C 73.31857 0 74.98355 0 76.09354 .4634062 C 77.69369 1.045812 78.95419 2.30631 79.53659 3.906457 C 80 5.016448 80 6.681434 80 9.45641 L 80 70.54359 C 80 73.31857 80 74.98355 79.53659 76.09354 C 78.95419 77.69369 77.69369 78.95419 76.09354 79.53659 C 74.98355 80 73.31857 80 70.54359 80 L 9.45641 80 C 6.681434 80 5.016448 80 3.906457 79.53659 C 2.30631 78.95419 1.045812 77.69369 .4634062 76.09354 C 0 74.98355 0 73.31857 0 70.54359 L 0 9.45641 C 0 6.681434 0 5.016448 .4634062 3.906457 C 1.045812 2.30631 2.30631 1.045812 3.906457 .4634062 C 5.016448 0 6.681434 0 9.45641 0 Z M 9.45641 0 "/>
</g>
<g id="Layer-1" data-name="P">
<path transform="matrix(1,0,0,-1,-711.0818,983.2371)" d="M 726.4459 976.0415 L 787.533 976.0415 C 790.308 976.0415 791.973 976.0415 793.083 975.5781 C 794.6831 974.9957 795.9436 973.7352 796.526 972.135 C 796.9894 971.025 796.9894 969.3601 796.9894 966.5851 L 796.9894 905.4979 C 796.9894 902.7229 796.9894 901.0579 796.526 899.948 C 795.9436 898.3478 794.6831 897.0873 793.083 896.5049 C 791.973 896.0415 790.308 896.0415 787.533 896.0415 L 726.4459 896.0415 C 723.6709 896.0415 722.0059 896.0415 720.8959 896.5049 C 719.2958 897.0873 718.0353 898.3478 717.4528 899.948 C 716.9894 901.0579 716.9894 902.7229 716.9894 905.4979 L 716.9894 966.5851 C 716.9894 969.3601 716.9894 971.025 717.4528 972.135 C 718.0353 973.7352 719.2958 974.9957 720.8959 975.5781 C 722.0059 976.0415 723.6709 976.0415 726.4459 976.0415 Z M 726.4459 976.0415 " fill="#3fc59b"/>
<path transform="matrix(1,0,0,1,5.907593,7.1956179)" stroke-width="7" stroke-linecap="butt" stroke-miterlimit="4" stroke-linejoin="miter" fill="none" stroke="#ffffff" d="M 9.45641 0 L 70.54359 0 C 73.31857 0 74.98355 0 76.09354 .4634062 C 77.69369 1.045812 78.95419 2.30631 79.53659 3.906457 C 80 5.016448 80 6.681434 80 9.45641 L 80 70.54359 C 80 73.31857 80 74.98355 79.53659 76.09354 C 78.95419 77.69369 77.69369 78.95419 76.09354 79.53659 C 74.98355 80 73.31857 80 70.54359 80 L 9.45641 80 C 6.681434 80 5.016448 80 3.906457 79.53659 C 2.30631 78.95419 1.045812 77.69369 .4634062 76.09354 C 0 74.98355 0 73.31857 0 70.54359 L 0 9.45641 C 0 6.681434 0 5.016448 .4634062 3.906457 C 1.045812 2.30631 2.30631 1.045812 3.906457 .4634062 C 5.016448 0 6.681434 0 9.45641 0 Z M 9.45641 0 "/>
</g>
<g id="Layer-1" data-name="P">
<path transform="matrix(1,0,0,-1,-711.0818,983.2371)" d="M 900.4761 976.0415 L 961.5632 976.0415 C 964.3382 976.0415 966.0032 976.0415 967.1132 975.5781 C 968.7133 974.9957 969.9738 973.7352 970.5562 972.135 C 971.0197 971.025 971.0197 969.3601 971.0197 966.5851 L 971.0197 905.4979 C 971.0197 902.7229 971.0197 901.0579 970.5562 899.948 C 969.9738 898.3478 968.7133 897.0873 967.1132 896.5049 C 966.0032 896.0415 964.3382 896.0415 961.5632 896.0415 L 900.4761 896.0415 C 897.7011 896.0415 896.0361 896.0415 894.9261 896.5049 C 893.326 897.0873 892.0655 898.3478 891.4831 899.948 C 891.0197 901.0579 891.0197 902.7229 891.0197 905.4979 L 891.0197 966.5851 C 891.0197 969.3601 891.0197 971.025 891.4831 972.135 C 892.0655 973.7352 893.326 974.9957 894.9261 975.5781 C 896.0361 976.0415 897.7011 976.0415 900.4761 976.0415 Z M 900.4761 976.0415 " fill="#3fc59b"/>
<path transform="matrix(1,0,0,1,179.93793,7.1956179)" stroke-width="7" stroke-linecap="butt" stroke-miterlimit="4" stroke-linejoin="miter" fill="none" stroke="#ffffff" d="M 9.45641 0 L 70.54359 0 C 73.31857 0 74.98355 0 76.09354 .4634062 C 77.69369 1.045812 78.95419 2.30631 79.53659 3.906457 C 80 5.016448 80 6.681434 80 9.45641 L 80 70.54359 C 80 73.31857 80 74.98355 79.53659 76.09354 C 78.95419 77.69369 77.69369 78.95419 76.09354 79.53659 C 74.98355 80 73.31857 80 70.54359 80 L 9.45641 80 C 6.681434 80 5.016448 80 3.906457 79.53659 C 2.30631 78.95419 1.045812 77.69369 .4634062 76.09354 C 0 74.98355 0 73.31857 0 70.54359 L 0 9.45641 C 0 6.681434 0 5.016448 .4634062 3.906457 C 1.045812 2.30631 2.30631 1.045812 3.906457 .4634062 C 5.016448 0 6.681434 0 9.45641 0 Z M 9.45641 0 "/>
</g>
<g id="Layer-1" data-name="P">
<path transform="matrix(1,0,0,-1,-711.0818,983.2371)" d="M 727.0538 887.148 L 788.1409 887.148 C 790.9159 887.148 792.5809 887.148 793.6909 886.6846 C 795.291 886.1022 796.5515 884.8417 797.1339 883.2415 C 797.5974 882.1315 797.5974 880.4665 797.5974 877.6916 L 797.5974 816.6044 C 797.5974 813.8294 797.5974 812.1644 797.1339 811.0544 C 796.5515 809.4543 795.291 808.1938 793.6909 807.6114 C 792.5809 807.148 790.9159 807.148 788.1409 807.148 L 727.0538 807.148 C 724.2788 807.148 722.6138 807.148 721.5038 807.6114 C 719.9037 808.1938 718.6432 809.4543 718.0608 811.0544 C 717.5974 812.1644 717.5974 813.8294 717.5974 816.6044 L 717.5974 877.6916 C 717.5974 880.4665 717.5974 882.1315 718.0608 883.2415 C 718.6432 884.8417 719.9037 886.1022 721.5038 886.6846 C 722.6138 887.148 724.2788 887.148 727.0538 887.148 Z M 727.0538 887.148 " fill="#3fc59b"/>
<path transform="matrix(1,0,0,1,6.515625,96.08911)" stroke-width="7" stroke-linecap="butt" stroke-miterlimit="4" stroke-linejoin="miter" fill="none" stroke="#ffffff" d="M 9.45641 0 L 70.54359 0 C 73.31857 0 74.98355 0 76.09354 .4634062 C 77.69369 1.045812 78.95419 2.30631 79.53659 3.906457 C 80 5.016448 80 6.681434 80 9.45641 L 80 70.54359 C 80 73.31857 80 74.98355 79.53659 76.09354 C 78.95419 77.69369 77.69369 78.95419 76.09354 79.53659 C 74.98355 80 73.31857 80 70.54359 80 L 9.45641 80 C 6.681434 80 5.016448 80 3.906457 79.53659 C 2.30631 78.95419 1.045812 77.69369 .4634062 76.09354 C 0 74.98355 0 73.31857 0 70.54359 L 0 9.45641 C 0 6.681434 0 5.016448 .4634062 3.906457 C 1.045812 2.30631 2.30631 1.045812 3.906457 .4634062 C 5.016448 0 6.681434 0 9.45641 0 Z M 9.45641 0 "/>
</g>
<g id="Layer-1" data-name="P">
<path transform="matrix(1,0,0,-1,-711.0818,983.2371)" d="M 814.0689 887.148 L 875.1561 887.148 C 877.9311 887.148 879.596 887.148 880.706 886.6846 C 882.3062 886.1022 883.5667 884.8417 884.1491 883.2415 C 884.6125 882.1315 884.6125 880.4665 884.6125 877.6916 L 884.6125 816.6044 C 884.6125 813.8294 884.6125 812.1644 884.1491 811.0544 C 883.5667 809.4543 882.3062 808.1938 880.706 807.6114 C 879.596 807.148 877.9311 807.148 875.1561 807.148 L 814.0689 807.148 C 811.2939 807.148 809.6289 807.148 808.5189 807.6114 C 806.9188 808.1938 805.6583 809.4543 805.0759 811.0544 C 804.6125 812.1644 804.6125 813.8294 804.6125 816.6044 L 804.6125 877.6916 C 804.6125 880.4665 804.6125 882.1315 805.0759 883.2415 C 805.6583 884.8417 806.9188 886.1022 808.5189 886.6846 C 809.6289 887.148 811.2939 887.148 814.0689 887.148 Z M 814.0689 887.148 " fill="#3fc59b"/>
<path transform="matrix(1,0,0,1,93.5307,96.08911)" stroke-width="7" stroke-linecap="butt" stroke-miterlimit="4" stroke-linejoin="miter" fill="none" stroke="#ffffff" d="M 9.45641 0 L 70.54359 0 C 73.31857 0 74.98355 0 76.09354 .4634062 C 77.69369 1.045812 78.95419 2.30631 79.53659 3.906457 C 80 5.016448 80 6.681434 80 9.45641 L 80 70.54359 C 80 73.31857 80 74.98355 79.53659 76.09354 C 78.95419 77.69369 77.69369 78.95419 76.09354 79.53659 C 74.98355 80 73.31857 80 70.54359 80 L 9.45641 80 C 6.681434 80 5.016448 80 3.906457 79.53659 C 2.30631 78.95419 1.045812 77.69369 .4634062 76.09354 C 0 74.98355 0 73.31857 0 70.54359 L 0 9.45641 C 0 6.681434 0 5.016448 .4634062 3.906457 C 1.045812 2.30631 2.30631 1.045812 3.906457 .4634062 C 5.016448 0 6.681434 0 9.45641 0 Z M 9.45641 0 "/>
</g>
<g id="Layer-1" data-name="P">
<path transform="matrix(1,0,0,-1,-711.0818,983.2371)" d="M 813.8885 798.2545 L 874.9757 798.2545 C 877.7506 798.2545 879.4156 798.2545 880.5256 797.791 C 882.1258 797.2086 883.3863 795.9481 883.9687 794.348 C 884.4321 793.238 884.4321 791.573 884.4321 788.798 L 884.4321 727.7109 C 884.4321 724.9359 884.4321 723.2709 883.9687 722.1609 C 883.3863 720.5608 882.1258 719.3003 880.5256 718.7179 C 879.4156 718.2545 877.7506 718.2545 874.9757 718.2545 L 813.8885 718.2545 C 811.1135 718.2545 809.4485 718.2545 808.3385 718.7179 C 806.7384 719.3003 805.4779 720.5608 804.8955 722.1609 C 804.4321 723.2709 804.4321 724.9359 804.4321 727.7109 L 804.4321 788.798 C 804.4321 791.573 804.4321 793.238 804.8955 794.348 C 805.4779 795.9481 806.7384 797.2086 808.3385 797.791 C 809.4485 798.2545 811.1135 798.2545 813.8885 798.2545 Z M 813.8885 798.2545 " fill="#3fc59b"/>
<path transform="matrix(1,0,0,1,93.35034,184.9826)" stroke-width="7" stroke-linecap="butt" stroke-miterlimit="4" stroke-linejoin="miter" fill="none" stroke="#ffffff" d="M 9.45641 0 L 70.54359 0 C 73.31857 0 74.98355 0 76.09354 .4634062 C 77.69369 1.045812 78.95419 2.30631 79.53659 3.906457 C 80 5.016448 80 6.681434 80 9.45641 L 80 70.54359 C 80 73.31857 80 74.98355 79.53659 76.09354 C 78.95419 77.69369 77.69369 78.95419 76.09354 79.53659 C 74.98355 80 73.31857 80 70.54359 80 L 9.45641 80 C 6.681434 80 5.016448 80 3.906457 79.53659 C 2.30631 78.95419 1.045812 77.69369 .4634062 76.09354 C 0 74.98355 0 73.31857 0 70.54359 L 0 9.45641 C 0 6.681434 0 5.016448 .4634062 3.906457 C 1.045812 2.30631 2.30631 1.045812 3.906457 .4634062 C 5.016448 0 6.681434 0 9.45641 0 Z M 9.45641 0 "/>
</g>
<g id="Layer-1" data-name="P">
<path transform="matrix(1,0,0,-1,-711.0818,983.2371)" d="M 900.9036 798.2545 L 961.9907 798.2545 C 964.7657 798.2545 966.4307 798.2545 967.5407 797.791 C 969.1408 797.2086 970.4013 795.9481 970.9837 794.348 C 971.4471 793.238 971.4471 791.573 971.4471 788.798 L 971.4471 727.7109 C 971.4471 724.9359 971.4471 723.2709 970.9837 722.1609 C 970.4013 720.5608 969.1408 719.3003 967.5407 718.7179 C 966.4307 718.2545 964.7657 718.2545 961.9907 718.2545 L 900.9036 718.2545 C 898.1286 718.2545 896.4636 718.2545 895.3536 718.7179 C 893.7535 719.3003 892.493 720.5608 891.9105 722.1609 C 891.4471 723.2709 891.4471 724.9359 891.4471 727.7109 L 891.4471 788.798 C 891.4471 791.573 891.4471 793.238 891.9105 794.348 C 892.493 795.9481 893.7535 797.2086 895.3536 797.791 C 896.4636 798.2545 898.1286 798.2545 900.9036 798.2545 Z M 900.9036 798.2545 " fill="#3fc59b"/>
<path transform="matrix(1,0,0,1,180.3653,184.9826)" stroke-width="7" stroke-linecap="butt" stroke-miterlimit="4" stroke-linejoin="miter" fill="none" stroke="#ffffff" d="M 9.45641 0 L 70.54359 0 C 73.31857 0 74.98355 0 76.09354 .4634062 C 77.69369 1.045812 78.95419 2.30631 79.53659 3.906457 C 80 5.016448 80 6.681434 80 9.45641 L 80 70.54359 C 80 73.31857 80 74.98355 79.53659 76.09354 C 78.95419 77.69369 77.69369 78.95419 76.09354 79.53659 C 74.98355 80 73.31857 80 70.54359 80 L 9.45641 80 C 6.681434 80 5.016448 80 3.906457 79.53659 C 2.30631 78.95419 1.045812 77.69369 .4634062 76.09354 C 0 74.98355 0 73.31857 0 70.54359 L 0 9.45641 C 0 6.681434 0 5.016448 .4634062 3.906457 C 1.045812 2.30631 2.30631 1.045812 3.906457 .4634062 C 5.016448 0 6.681434 0 9.45641 0 Z M 9.45641 0 "/>
</g>
<g id="Layer-1" data-name="P">
<path transform="matrix(1,0,0,-1,-711.0818,983.2371)" d="M 727.4813 709.3609 L 788.5684 709.3609 C 791.3434 709.3609 793.0084 709.3609 794.1184 708.8975 C 795.7185 708.3151 796.979 707.0546 797.5614 705.4544 C 798.0248 704.3445 798.0248 702.6795 798.0248 699.9045 L 798.0248 638.8173 C 798.0248 636.0423 798.0248 634.3773 797.5614 633.2674 C 796.979 631.6672 795.7185 630.4067 794.1184 629.8243 C 793.0084 629.3609 791.3434 629.3609 788.5684 629.3609 L 727.4813 629.3609 C 724.7063 629.3609 723.0413 629.3609 721.9313 629.8243 C 720.3312 630.4067 719.0707 631.6672 718.4882 633.2674 C 718.0248 634.3773 718.0248 636.0423 718.0248 638.8173 L 718.0248 699.9045 C 718.0248 702.6795 718.0248 704.3445 718.4882 705.4544 C 719.0707 707.0546 720.3312 708.3151 721.9313 708.8975 C 723.0413 709.3609 724.7063 709.3609 727.4813 709.3609 Z M 727.4813 709.3609 " fill="#3fc59b"/>
<path transform="matrix(1,0,0,1,6.942993,273.87623)" stroke-width="7" stroke-linecap="butt" stroke-miterlimit="4" stroke-linejoin="miter" fill="none" stroke="#ffffff" d="M 9.45641 0 L 70.54359 0 C 73.31857 0 74.98355 0 76.09354 .4634062 C 77.69369 1.045812 78.95419 2.30631 79.53659 3.906457 C 80 5.016448 80 6.681434 80 9.45641 L 80 70.54359 C 80 73.31857 80 74.98355 79.53659 76.09354 C 78.95419 77.69369 77.69369 78.95419 76.09354 79.53659 C 74.98355 80 73.31857 80 70.54359 80 L 9.45641 80 C 6.681434 80 5.016448 80 3.906457 79.53659 C 2.30631 78.95419 1.045812 77.69369 .4634062 76.09354 C 0 74.98355 0 73.31857 0 70.54359 L 0 9.45641 C 0 6.681434 0 5.016448 .4634062 3.906457 C 1.045812 2.30631 2.30631 1.045812 3.906457 .4634062 C 5.016448 0 6.681434 0 9.45641 0 Z M 9.45641 0 "/>
</g>
<g id="Layer-1" data-name="P">
<path transform="matrix(1,0,0,-1,-711.0818,983.2371)" d="M 727.6153 620.4674 L 788.7025 620.4674 C 791.4775 620.4674 793.1425 620.4674 794.2525 620.004 C 795.8526 619.4216 797.1131 618.1611 797.6955 616.5609 C 798.1589 615.4509 798.1589 613.7859 798.1589 611.011 L 798.1589 549.9238 C 798.1589 547.1488 798.1589 545.4838 797.6955 544.3738 C 797.1131 542.7737 795.8526 541.5132 794.2525 540.9308 C 793.1425 540.4674 791.4775 540.4674 788.7025 540.4674 L 727.6153 540.4674 C 724.8404 540.4674 723.1754 540.4674 722.0654 540.9308 C 720.4652 541.5132 719.2047 542.7737 718.6223 544.3738 C 718.1589 545.4838 718.1589 547.1488 718.1589 549.9238 L 718.1589 611.011 C 718.1589 613.7859 718.1589 615.4509 718.6223 616.5609 C 719.2047 618.1611 720.4652 619.4216 722.0654 620.004 C 723.1754 620.4674 724.8404 620.4674 727.6153 620.4674 Z M 727.6153 620.4674 " fill="#a5cffc"/>
<path transform="matrix(1,0,0,1,7.0770876,362.7697)" stroke-width="7" stroke-linecap="butt" stroke-miterlimit="4" stroke-linejoin="miter" fill="none" stroke="#ffffff" d="M 9.45641 0 L 70.54359 0 C 73.31857 0 74.98355 0 76.09354 .4634062 C 77.69369 1.045812 78.95419 2.30631 79.53659 3.906457 C 80 5.016448 80 6.681434 80 9.45641 L 80 70.54359 C 80 73.31857 80 74.98355 79.53659 76.09354 C 78.95419 77.69369 77.69369 78.95419 76.09354 79.53659 C 74.98355 80 73.31857 80 70.54359 80 L 9.45641 80 C 6.681434 80 5.016448 80 3.906457 79.53659 C 2.30631 78.95419 1.045812 77.69369 .4634062 76.09354 C 0 74.98355 0 73.31857 0 70.54359 L 0 9.45641 C 0 6.681434 0 5.016448 .4634062 3.906457 C 1.045812 2.30631 2.30631 1.045812 3.906457 .4634062 C 5.016448 0 6.681434 0 9.45641 0 Z M 9.45641 0 "/>
</g>
<g id="Layer-1" data-name="P">
<path transform="matrix(1,0,0,-1,-711.0818,983.2371)" d="M 814.6305 620.4674 L 875.7177 620.4674 C 878.4926 620.4674 880.1576 620.4674 881.2676 620.004 C 882.8678 619.4216 884.1283 618.1611 884.7107 616.5609 C 885.1741 615.4509 885.1741 613.7859 885.1741 611.011 L 885.1741 549.9238 C 885.1741 547.1488 885.1741 545.4838 884.7107 544.3738 C 884.1283 542.7737 882.8678 541.5132 881.2676 540.9308 C 880.1576 540.4674 878.4926 540.4674 875.7177 540.4674 L 814.6305 540.4674 C 811.8555 540.4674 810.1905 540.4674 809.0805 540.9308 C 807.4804 541.5132 806.2199 542.7737 805.6375 544.3738 C 805.1741 545.4838 805.1741 547.1488 805.1741 549.9238 L 805.1741 611.011 C 805.1741 613.7859 805.1741 615.4509 805.6375 616.5609 C 806.2199 618.1611 807.4804 619.4216 809.0805 620.004 C 810.1905 620.4674 811.8555 620.4674 814.6305 620.4674 Z M 814.6305 620.4674 " fill="#fb6957"/>
<path transform="matrix(1,0,0,1,94.092288,362.7697)" stroke-width=".35" stroke-linecap="butt" stroke-miterlimit="4" stroke-linejoin="miter" fill="none" stroke="#ffffff" d="M 9.45641 0 L 70.54359 0 C 73.31857 0 74.98355 0 76.09354 .4634062 C 77.69369 1.045812 78.95419 2.30631 79.53659 3.906457 C 80 5.016448 80 6.681434 80 9.45641 L 80 70.54359 C 80 73.31857 80 74.98355 79.53659 76.09354 C 78.95419 77.69369 77.69369 78.95419 76.09354 79.53659 C 74.98355 80 73.31857 80 70.54359 80 L 9.45641 80 C 6.681434 80 5.016448 80 3.906457 79.53659 C 2.30631 78.95419 1.045812 77.69369 .4634062 76.09354 C 0 74.98355 0 73.31857 0 70.54359 L 0 9.45641 C 0 6.681434 0 5.016448 .4634062 3.906457 C 1.045812 2.30631 2.30631 1.045812 3.906457 .4634062 C 5.016448 0 6.681434 0 9.45641 0 Z M 9.45641 0 "/>
</g>
<g id="Layer-1" data-name="P">
<path transform="matrix(1,0,0,-1,-711.0818,983.2371)" d="M 728.2233 531.5739 L 789.3104 531.5739 C 792.0854 531.5739 793.7504 531.5739 794.8604 531.1104 C 796.4605 530.528 797.721 529.2675 798.3034 527.6674 C 798.7668 526.5574 798.7668 524.8924 798.7668 522.1174 L 798.7668 461.0303 C 798.7668 458.2553 798.7668 456.5903 798.3034 455.4803 C 797.721 453.8802 796.4605 452.6197 794.8604 452.0373 C 793.7504 451.5739 792.0854 451.5739 789.3104 451.5739 L 728.2233 451.5739 C 725.4483 451.5739 723.7833 451.5739 722.6733 452.0373 C 721.0732 452.6197 719.8127 453.8802 719.2303 455.4803 C 718.7668 456.5903 718.7668 458.2553 718.7668 461.0303 L 718.7668 522.1174 C 718.7668 524.8924 718.7668 526.5574 719.2303 527.6674 C 719.8127 529.2675 721.0732 530.528 722.6733 531.1104 C 723.7833 531.5739 725.4483 531.5739 728.2233 531.5739 Z M 728.2233 531.5739 " fill="#a5cffc"/>
<path transform="matrix(1,0,0,1,7.6849977,451.6632)" stroke-width="7" stroke-linecap="butt" stroke-miterlimit="4" stroke-linejoin="miter" fill="none" stroke="#ffffff" d="M 9.45641 0 L 70.54359 0 C 73.31857 0 74.98355 0 76.09354 .4634062 C 77.69369 1.045812 78.95419 2.30631 79.53659 3.906457 C 80 5.016448 80 6.681434 80 9.45641 L 80 70.54359 C 80 73.31857 80 74.98355 79.53659 76.09354 C 78.95419 77.69369 77.69369 78.95419 76.09354 79.53659 C 74.98355 80 73.31857 80 70.54359 80 L 9.45641 80 C 6.681434 80 5.016448 80 3.906457 79.53659 C 2.30631 78.95419 1.045812 77.69369 .4634062 76.09354 C 0 74.98355 0 73.31857 0 70.54359 L 0 9.45641 C 0 6.681434 0 5.016448 .4634062 3.906457 C 1.045812 2.30631 2.30631 1.045812 3.906457 .4634062 C 5.016448 0 6.681434 0 9.45641 0 Z M 9.45641 0 "/>
</g>
<g id="Layer-1" data-name="P">
<path transform="matrix(1,0,0,-1,-711.0818,983.2371)" d="M 815.2384 531.5739 L 876.3256 531.5739 C 879.1005 531.5739 880.7655 531.5739 881.8755 531.1104 C 883.4757 530.528 884.7362 529.2675 885.3186 527.6674 C 885.782 526.5574 885.782 524.8924 885.782 522.1174 L 885.782 461.0303 C 885.782 458.2553 885.782 456.5903 885.3186 455.4803 C 884.7362 453.8802 883.4757 452.6197 881.8755 452.0373 C 880.7655 451.5739 879.1005 451.5739 876.3256 451.5739 L 815.2384 451.5739 C 812.4634 451.5739 810.7984 451.5739 809.6884 452.0373 C 808.0883 452.6197 806.8278 453.8802 806.2454 455.4803 C 805.782 456.5903 805.782 458.2553 805.782 461.0303 L 805.782 522.1174 C 805.782 524.8924 805.782 526.5574 806.2454 527.6674 C 806.8278 529.2675 808.0883 530.528 809.6884 531.1104 C 810.7984 531.5739 812.4634 531.5739 815.2384 531.5739 Z M 815.2384 531.5739 " fill="#a5cffc"/>
<path transform="matrix(1,0,0,1,94.700199,451.6632)" stroke-width="7" stroke-linecap="butt" stroke-miterlimit="4" stroke-linejoin="miter" fill="none" stroke="#ffffff" d="M 9.45641 0 L 70.54359 0 C 73.31857 0 74.98355 0 76.09354 .4634062 C 77.69369 1.045812 78.95419 2.30631 79.53659 3.906457 C 80 5.016448 80 6.681434 80 9.45641 L 80 70.54359 C 80 73.31857 80 74.98355 79.53659 76.09354 C 78.95419 77.69369 77.69369 78.95419 76.09354 79.53659 C 74.98355 80 73.31857 80 70.54359 80 L 9.45641 80 C 6.681434 80 5.016448 80 3.906457 79.53659 C 2.30631 78.95419 1.045812 77.69369 .4634062 76.09354 C 0 74.98355 0 73.31857 0 70.54359 L 0 9.45641 C 0 6.681434 0 5.016448 .4634062 3.906457 C 1.045812 2.30631 2.30631 1.045812 3.906457 .4634062 C 5.016448 0 6.681434 0 9.45641 0 Z M 9.45641 0 "/>
</g>
<g id="Layer-1" data-name="P">
<path transform="matrix(1,0,0,-1,-711.0818,983.2371)" d="M 902.2535 531.5739 L 963.3406 531.5739 C 966.1156 531.5739 967.7806 531.5739 968.8906 531.1104 C 970.4907 530.528 971.7512 529.2675 972.3337 527.6674 C 972.7971 526.5574 972.7971 524.8924 972.7971 522.1174 L 972.7971 461.0303 C 972.7971 458.2553 972.7971 456.5903 972.3337 455.4803 C 971.7512 453.8802 970.4907 452.6197 968.8906 452.0373 C 967.7806 451.5739 966.1156 451.5739 963.3406 451.5739 L 902.2535 451.5739 C 899.4785 451.5739 897.8135 451.5739 896.7035 452.0373 C 895.1034 452.6197 893.8429 453.8802 893.2605 455.4803 C 892.7971 456.5903 892.7971 458.2553 892.7971 461.0303 L 892.7971 522.1174 C 892.7971 524.8924 892.7971 526.5574 893.2605 527.6674 C 893.8429 529.2675 895.1034 530.528 896.7035 531.1104 C 897.8135 531.5739 899.4785 531.5739 902.2535 531.5739 Z M 902.2535 531.5739 " fill="#a5cffc"/>
<path transform="matrix(1,0,0,1,181.71533,451.6632)" stroke-width="7" stroke-linecap="butt" stroke-miterlimit="4" stroke-linejoin="miter" fill="none" stroke="#ffffff" d="M 9.45641 0 L 70.54359 0 C 73.31857 0 74.98355 0 76.09354 .4634062 C 77.69369 1.045812 78.95419 2.30631 79.53659 3.906457 C 80 5.016448 80 6.681434 80 9.45641 L 80 70.54359 C 80 73.31857 80 74.98355 79.53659 76.09354 C 78.95419 77.69369 77.69369 78.95419 76.09354 79.53659 C 74.98355 80 73.31857 80 70.54359 80 L 9.45641 80 C 6.681434 80 5.016448 80 3.906457 79.53659 C 2.30631 78.95419 1.045812 77.69369 .4634062 76.09354 C 0 74.98355 0 73.31857 0 70.54359 L 0 9.45641 C 0 6.681434 0 5.016448 .4634062 3.906457 C 1.045812 2.30631 2.30631 1.045812 3.906457 .4634062 C 5.016448 0 6.681434 0 9.45641 0 Z M 9.45641 0 "/>
</g>
<g id="Layer-1" data-name="P">
<path transform="matrix(1,0,0,-1,-711.0818,983.2371)" d="M 728.2233 442.6803 L 789.3104 442.6803 C 792.0854 442.6803 793.7504 442.6803 794.8604 442.2169 C 796.4605 441.6345 797.721 440.374 798.3034 438.7738 C 798.7668 437.6638 798.7668 435.9989 798.7668 433.2239 L 798.7668 372.1367 C 798.7668 369.3617 798.7668 367.6967 798.3034 366.5868 C 797.721 364.9866 796.4605 363.7261 794.8604 363.1437 C 793.7504 362.6803 792.0854 362.6803 789.3104 362.6803 L 728.2233 362.6803 C 725.4483 362.6803 723.7833 362.6803 722.6733 363.1437 C 721.0732 363.7261 719.8127 364.9866 719.2303 366.5868 C 718.7668 367.6967 718.7668 369.3617 718.7668 372.1367 L 718.7668 433.2239 C 718.7668 435.9989 718.7668 437.6638 719.2303 438.7738 C 719.8127 440.374 721.0732 441.6345 722.6733 442.2169 C 723.7833 442.6803 725.4483 442.6803 728.2233 442.6803 Z M 728.2233 442.6803 " fill="#a5cffc"/>
<path transform="matrix(1,0,0,1,7.6849977,540.5568)" stroke-width="7" stroke-linecap="butt" stroke-miterlimit="4" stroke-linejoin="miter" fill="none" stroke="#ffffff" d="M 9.45641 0 L 70.54359 0 C 73.31857 0 74.98355 0 76.09354 .4634062 C 77.69369 1.045812 78.95419 2.30631 79.53659 3.906457 C 80 5.016448 80 6.681434 80 9.45641 L 80 70.54359 C 80 73.31857 80 74.98355 79.53659 76.09354 C 78.95419 77.69369 77.69369 78.95419 76.09354 79.53659 C 74.98355 80 73.31857 80 70.54359 80 L 9.45641 80 C 6.681434 80 5.016448 80 3.906457 79.53659 C 2.30631 78.95419 1.045812 77.69369 .4634062 76.09354 C 0 74.98355 0 73.31857 0 70.54359 L 0 9.45641 C 0 6.681434 0 5.016448 .4634062 3.906457 C 1.045812 2.30631 2.30631 1.045812 3.906457 .4634062 C 5.016448 0 6.681434 0 9.45641 0 Z M 9.45641 0 "/>
</g>
<g id="Layer-1" data-name="P">
<path transform="matrix(1,0,0,-1,-711.0818,983.2371)" d="M 815.2384 442.6803 L 876.3256 442.6803 C 879.1005 442.6803 880.7655 442.6803 881.8755 442.2169 C 883.4757 441.6345 884.7362 440.374 885.3186 438.7738 C 885.782 437.6638 885.782 435.9989 885.782 433.2239 L 885.782 372.1367 C 885.782 369.3617 885.782 367.6967 885.3186 366.5868 C 884.7362 364.9866 883.4757 363.7261 881.8755 363.1437 C 880.7655 362.6803 879.1005 362.6803 876.3256 362.6803 L 815.2384 362.6803 C 812.4634 362.6803 810.7984 362.6803 809.6884 363.1437 C 808.0883 363.7261 806.8278 364.9866 806.2454 366.5868 C 805.782 367.6967 805.782 369.3617 805.782 372.1367 L 805.782 433.2239 C 805.782 435.9989 805.782 437.6638 806.2454 438.7738 C 806.8278 440.374 808.0883 441.6345 809.6884 442.2169 C 810.7984 442.6803 812.4634 442.6803 815.2384 442.6803 Z M 815.2384 442.6803 " fill="#a5cffc"/>
<path transform="matrix(1,0,0,1,94.700199,540.5568)" stroke-width="7" stroke-linecap="butt" stroke-miterlimit="4" stroke-linejoin="miter" fill="none" stroke="#ffffff" d="M 9.45641 0 L 70.54359 0 C 73.31857 0 74.98355 0 76.09354 .4634062 C 77.69369 1.045812 78.95419 2.30631 79.53659 3.906457 C 80 5.016448 80 6.681434 80 9.45641 L 80 70.54359 C 80 73.31857 80 74.98355 79.53659 76.09354 C 78.95419 77.69369 77.69369 78.95419 76.09354 79.53659 C 74.98355 80 73.31857 80 70.54359 80 L 9.45641 80 C 6.681434 80 5.016448 80 3.906457 79.53659 C 2.30631 78.95419 1.045812 77.69369 .4634062 76.09354 C 0 74.98355 0 73.31857 0 70.54359 L 0 9.45641 C 0 6.681434 0 5.016448 .4634062 3.906457 C 1.045812 2.30631 2.30631 1.045812 3.906457 .4634062 C 5.016448 0 6.681434 0 9.45641 0 Z M 9.45641 0 "/>
</g>
<g id="Layer-1" data-name="P">
<path transform="matrix(1,0,0,-1,-711.0818,983.2371)" d="M 902.2535 442.6803 L 963.3406 442.6803 C 966.1156 442.6803 967.7806 442.6803 968.8906 442.2169 C 970.4907 441.6345 971.7512 440.374 972.3337 438.7738 C 972.7971 437.6638 972.7971 435.9989 972.7971 433.2239 L 972.7971 372.1367 C 972.7971 369.3617 972.7971 367.6967 972.3337 366.5868 C 971.7512 364.9866 970.4907 363.7261 968.8906 363.1437 C 967.7806 362.6803 966.1156 362.6803 963.3406 362.6803 L 902.2535 362.6803 C 899.4785 362.6803 897.8135 362.6803 896.7035 363.1437 C 895.1034 363.7261 893.8429 364.9866 893.2605 366.5868 C 892.7971 367.6967 892.7971 369.3617 892.7971 372.1367 L 892.7971 433.2239 C 892.7971 435.9989 892.7971 437.6638 893.2605 438.7738 C 893.8429 440.374 895.1034 441.6345 896.7035 442.2169 C 897.8135 442.6803 899.4785 442.6803 902.2535 442.6803 Z M 902.2535 442.6803 " fill="#a5cffc"/>
<path transform="matrix(1,0,0,1,181.71533,540.5568)" stroke-width="7" stroke-linecap="butt" stroke-miterlimit="4" stroke-linejoin="miter" fill="none" stroke="#ffffff" d="M 9.45641 0 L 70.54359 0 C 73.31857 0 74.98355 0 76.09354 .4634062 C 77.69369 1.045812 78.95419 2.30631 79.53659 3.906457 C 80 5.016448 80 6.681434 80 9.45641 L 80 70.54359 C 80 73.31857 80 74.98355 79.53659 76.09354 C 78.95419 77.69369 77.69369 78.95419 76.09354 79.53659 C 74.98355 80 73.31857 80 70.54359 80 L 9.45641 80 C 6.681434 80 5.016448 80 3.906457 79.53659 C 2.30631 78.95419 1.045812 77.69369 .4634062 76.09354 C 0 74.98355 0 73.31857 0 70.54359 L 0 9.45641 C 0 6.681434 0 5.016448 .4634062 3.906457 C 1.045812 2.30631 2.30631 1.045812 3.906457 .4634062 C 5.016448 0 6.681434 0 9.45641 0 Z M 9.45641 0 "/>
</g>
<g id="Layer-1" data-name="P">
<path transform="matrix(1,0,0,-1,-711.0818,983.2371)" d="M 728.2233 353.7867 L 789.3104 353.7867 C 792.0854 353.7867 793.7504 353.7867 794.8604 353.3233 C 796.4605 352.7409 797.721 351.4804 798.3034 349.8803 C 798.7668 348.7703 798.7668 347.1053 798.7668 344.3303 L 798.7668 283.2432 C 798.7668 280.4682 798.7668 278.8032 798.3034 277.6932 C 797.721 276.0931 796.4605 274.8326 794.8604 274.2501 C 793.7504 273.7867 792.0854 273.7867 789.3104 273.7867 L 728.2233 273.7867 C 725.4483 273.7867 723.7833 273.7867 722.6733 274.2501 C 721.0732 274.8326 719.8127 276.0931 719.2303 277.6932 C 718.7668 278.8032 718.7668 280.4682 718.7668 283.2432 L 718.7668 344.3303 C 718.7668 347.1053 718.7668 348.7703 719.2303 349.8803 C 719.8127 351.4804 721.0732 352.7409 722.6733 353.3233 C 723.7833 353.7867 725.4483 353.7867 728.2233 353.7867 Z M 728.2233 353.7867 " fill="#a5cffc"/>
<path transform="matrix(1,0,0,1,7.6849977,629.45046)" stroke-width="7" stroke-linecap="butt" stroke-miterlimit="4" stroke-linejoin="miter" fill="none" stroke="#ffffff" d="M 9.45641 0 L 70.54359 0 C 73.31857 0 74.98355 0 76.09354 .4634062 C 77.69369 1.045812 78.95419 2.30631 79.53659 3.906457 C 80 5.016448 80 6.681434 80 9.45641 L 80 70.54359 C 80 73.31857 80 74.98355 79.53659 76.09354 C 78.95419 77.69369 77.69369 78.95419 76.09354 79.53659 C 74.98355 80 73.31857 80 70.54359 80 L 9.45641 80 C 6.681434 80 5.016448 80 3.906457 79.53659 C 2.30631 78.95419 1.045812 77.69369 .4634062 76.09354 C 0 74.98355 0 73.31857 0 70.54359 L 0 9.45641 C 0 6.681434 0 5.016448 .4634062 3.906457 C 1.045812 2.30631 2.30631 1.045812 3.906457 .4634062 C 5.016448 0 6.681434 0 9.45641 0 Z M 9.45641 0 "/>
</g>
<g id="Layer-1" data-name="P">
<path transform="matrix(1,0,0,-1,-711.0818,983.2371)" d="M 815.2384 353.7867 L 876.3256 353.7867 C 879.1005 353.7867 880.7655 353.7867 881.8755 353.3233 C 883.4757 352.7409 884.7362 351.4804 885.3186 349.8803 C 885.782 348.7703 885.782 347.1053 885.782 344.3303 L 885.782 283.2432 C 885.782 280.4682 885.782 278.8032 885.3186 277.6932 C 884.7362 276.0931 883.4757 274.8326 881.8755 274.2501 C 880.7655 273.7867 879.1005 273.7867 876.3256 273.7867 L 815.2384 273.7867 C 812.4634 273.7867 810.7984 273.7867 809.6884 274.2501 C 808.0883 274.8326 806.8278 276.0931 806.2454 277.6932 C 805.782 278.8032 805.782 280.4682 805.782 283.2432 L 805.782 344.3303 C 805.782 347.1053 805.782 348.7703 806.2454 349.8803 C 806.8278 351.4804 808.0883 352.7409 809.6884 353.3233 C 810.7984 353.7867 812.4634 353.7867 815.2384 353.7867 Z M 815.2384 353.7867 " fill="#a5cffc"/>
<path transform="matrix(1,0,0,1,94.700199,629.45046)" stroke-width="7" stroke-linecap="butt" stroke-miterlimit="4" stroke-linejoin="miter" fill="none" stroke="#ffffff" d="M 9.45641 0 L 70.54359 0 C 73.31857 0 74.98355 0 76.09354 .4634062 C 77.69369 1.045812 78.95419 2.30631 79.53659 3.906457 C 80 5.016448 80 6.681434 80 9.45641 L 80 70.54359 C 80 73.31857 80 74.98355 79.53659 76.09354 C 78.95419 77.69369 77.69369 78.95419 76.09354 79.53659 C 74.98355 80 73.31857 80 70.54359 80 L 9.45641 80 C 6.681434 80 5.016448 80 3.906457 79.53659 C 2.30631 78.95419 1.045812 77.69369 .4634062 76.09354 C 0 74.98355 0 73.31857 0 70.54359 L 0 9.45641 C 0 6.681434 0 5.016448 .4634062 3.906457 C 1.045812 2.30631 2.30631 1.045812 3.906457 .4634062 C 5.016448 0 6.681434 0 9.45641 0 Z M 9.45641 0 "/>
</g>
<g id="Layer-1" data-name="P">
<path transform="matrix(1,0,0,-1,-711.0818,983.2371)" d="M 902.2535 353.7867 L 963.3406 353.7867 C 966.1156 353.7867 967.7806 353.7867 968.8906 353.3233 C 970.4907 352.7409 971.7512 351.4804 972.3337 349.8803 C 972.7971 348.7703 972.7971 347.1053 972.7971 344.3303 L 972.7971 283.2432 C 972.7971 280.4682 972.7971 278.8032 972.3337 277.6932 C 971.7512 276.0931 970.4907 274.8326 968.8906 274.2501 C 967.7806 273.7867 966.1156 273.7867 963.3406 273.7867 L 902.2535 273.7867 C 899.4785 273.7867 897.8135 273.7867 896.7035 274.2501 C 895.1034 274.8326 893.8429 276.0931 893.2605 277.6932 C 892.7971 278.8032 892.7971 280.4682 892.7971 283.2432 L 892.7971 344.3303 C 892.7971 347.1053 892.7971 348.7703 893.2605 349.8803 C 893.8429 351.4804 895.1034 352.7409 896.7035 353.3233 C 897.8135 353.7867 899.4785 353.7867 902.2535 353.7867 Z M 902.2535 353.7867 " fill="#a5cffc"/>
<path transform="matrix(1,0,0,1,181.71533,629.45046)" stroke-width="7" stroke-linecap="butt" stroke-miterlimit="4" stroke-linejoin="miter" fill="none" stroke="#ffffff" d="M 9.45641 0 L 70.54359 0 C 73.31857 0 74.98355 0 76.09354 .4634062 C 77.69369 1.045812 78.95419 2.30631 79.53659 3.906457 C 80 5.016448 80 6.681434 80 9.45641 L 80 70.54359 C 80 73.31857 80 74.98355 79.53659 76.09354 C 78.95419 77.69369 77.69369 78.95419 76.09354 79.53659 C 74.98355 80 73.31857 80 70.54359 80 L 9.45641 80 C 6.681434 80 5.016448 80 3.906457 79.53659 C 2.30631 78.95419 1.045812 77.69369 .4634062 76.09354 C 0 74.98355 0 73.31857 0 70.54359 L 0 9.45641 C 0 6.681434 0 5.016448 .4634062 3.906457 C 1.045812 2.30631 2.30631 1.045812 3.906457 .4634062 C 5.016448 0 6.681434 0 9.45641 0 Z M 9.45641 0 "/>
</g>
<g id="Layer-1" data-name="P">
<path transform="matrix(1,0,0,-1,-711.0818,983.2371)" d="M 845.6104 531.5738 L 881.116 531.5738 C 882.7289 531.5738 883.6967 531.5738 884.3418 531.3044 C 885.2719 530.9659 886.0045 530.2333 886.343 529.3032 C 886.6124 528.6581 886.6124 527.6903 886.6124 526.0775 L 886.6124 505.9854 C 886.6124 504.3725 886.6124 503.4048 886.343 502.7596 C 886.0045 501.8295 885.2719 501.0969 884.3418 500.7584 C 883.6967 500.4891 882.7289 500.4891 881.116 500.4891 L 845.6104 500.4891 C 843.9975 500.4891 843.0298 500.4891 842.3846 500.7584 C 841.4546 501.0969 840.7219 501.8295 840.3834 502.7596 C 840.1141 503.4048 840.1141 504.3725 840.1141 505.9854 L 840.1141 526.0775 C 840.1141 527.6903 840.1141 528.6581 840.3834 529.3032 C 840.7219 530.2333 841.4546 530.9659 842.3846 531.3044 C 843.0298 531.5738 843.9975 531.5738 845.6104 531.5738 Z M 845.6104 531.5738 " fill="#3fc59d"/>
<path transform="matrix(1,0,0,1,129.03229,451.66334)" stroke-width=".35" stroke-linecap="butt" stroke-miterlimit="4" stroke-linejoin="miter" fill="none" stroke="#ffffff" d="M 5.496339 0 L 41.00197 0 C 42.61487 0 43.58261 0 44.22777 .2693451 C 45.15782 .6078563 45.89046 1.340494 46.22897 2.270546 C 46.49831 2.915705 46.49831 3.883443 46.49831 5.496339 L 46.49831 25.5884 C 46.49831 27.2013 46.49831 28.16903 46.22897 28.81419 C 45.89046 29.74424 45.15782 30.47688 44.22777 30.81539 C 43.58261 31.08474 42.61487 31.08474 41.00197 31.08474 L 5.496339 31.08474 C 3.883443 31.08474 2.915705 31.08474 2.270546 30.81539 C 1.340494 30.47688 .6078563 29.74424 .2693451 28.81419 C 0 28.16903 0 27.2013 0 25.5884 L 0 5.496339 C 0 3.883443 0 2.915705 .2693451 2.270546 C .6078563 1.340494 1.340494 .6078563 2.270546 .2693451 C 2.915705 0 3.883443 0 5.496339 0 Z M 5.496339 0 "/>
</g>
<g id="Layer-1" data-name="P">
<path transform="matrix(1,0,0,-1,-711.0818,983.2371)" d="M 902.2535 531.4026 L 950.385 531.4026 C 953.1599 531.4026 954.8249 531.4026 955.9349 530.9392 C 957.5351 530.3568 958.7956 529.0963 959.378 527.4962 C 959.8414 526.3862 959.8414 524.7212 959.8414 521.9462 L 959.8414 509.9956 C 959.8414 507.2206 959.8414 505.5556 959.378 504.4456 C 958.7956 502.8455 957.5351 501.585 955.9349 501.0026 C 954.8249 500.5392 953.1599 500.5392 950.385 500.5392 L 902.2535 500.5392 C 899.4785 500.5392 897.8135 500.5392 896.7035 501.0026 C 895.1034 501.585 893.8429 502.8455 893.2605 504.4456 C 892.7971 505.5556 892.7971 507.2206 892.7971 509.9956 L 892.7971 521.9462 C 892.7971 524.7212 892.7971 526.3862 893.2605 527.4962 C 893.8429 529.0963 895.1034 530.3568 896.7035 530.9392 C 897.8135 531.4026 899.4785 531.4026 902.2535 531.4026 Z M 902.2535 531.4026 " fill="#fa6957"/>
<path transform="matrix(1,0,0,1,181.71533,451.83454)" stroke-width=".35" stroke-linecap="butt" stroke-miterlimit="4" stroke-linejoin="miter" fill="none" stroke="#ffffff" d="M 9.45641 0 L 57.58791 0 C 60.36289 0 62.02787 0 63.13786 .4634062 C 64.73801 1.045812 65.99851 2.30631 66.58091 3.906457 C 67.04432 5.016448 67.04432 6.681434 67.04432 9.45641 L 67.04432 21.40705 C 67.04432 24.18202 67.04432 25.84701 66.58091 26.957 C 65.99851 28.55715 64.73801 29.81764 63.13786 30.40005 C 62.02787 30.86346 60.36289 30.86346 57.58791 30.86346 L 9.45641 30.86346 C 6.681434 30.86346 5.016448 30.86346 3.906457 30.40005 C 2.30631 29.81764 1.045812 28.55715 .4634062 26.957 C 0 25.84701 0 24.18202 0 21.40705 L 0 9.45641 C 0 6.681434 0 5.016448 .4634062 3.906457 C 1.045812 2.30631 2.30631 1.045812 3.906457 .4634062 C 5.016448 0 6.681434 0 9.45641 0 Z M 9.45641 0 "/>
</g>
<g id="Layer-1" data-name="P">
<path transform="matrix(1,0,0,-1,-711.0818,983.2371)" d="M 905.3643 620.8098 L 960.2298 620.8098 C 963.3961 620.8098 965.2958 620.8098 966.5623 620.281 C 968.3881 619.6165 969.8263 618.1782 970.4909 616.3525 C 971.0196 615.086 971.0196 613.1862 971.0196 610.02 L 971.0196 550.9148 C 971.0196 547.7485 971.0196 545.8488 970.4909 544.5823 C 969.8263 542.7565 968.3881 541.3183 966.5623 540.6537 C 965.2958 540.125 963.3961 540.125 960.2298 540.125 L 905.3643 540.125 C 902.198 540.125 900.2982 540.125 899.0317 540.6537 C 897.206 541.3183 895.7677 542.7565 895.1032 544.5823 C 894.5745 545.8488 894.5745 547.7485 894.5745 550.9148 L 894.5745 610.02 C 894.5745 613.1862 894.5745 615.086 895.1032 616.3525 C 895.7677 618.1782 897.206 619.6165 899.0317 620.281 C 900.2982 620.8098 902.198 620.8098 905.3643 620.8098 Z M 905.3643 620.8098 " fill="#3fc59d"/>
<path transform="matrix(1,0,0,1,183.49274,362.4273)" stroke-width=".35" stroke-linecap="butt" stroke-miterlimit="4" stroke-linejoin="miter" fill="none" stroke="#ffffff" d="M 10.78979 0 L 65.65537 0 C 68.82162 0 70.72138 0 71.98788 .5287479 C 73.81365 1.193275 75.25188 2.631507 75.91641 4.45728 C 76.44516 5.723783 76.44516 7.623537 76.44516 10.78979 L 76.44516 69.89496 C 76.44516 73.06122 76.44516 74.96097 75.91641 76.22747 C 75.25188 78.05325 73.81365 79.49148 71.98788 80.15601 C 70.72138 80.68475 68.82162 80.68475 65.65537 80.68475 L 10.78979 80.68475 C 7.623537 80.68475 5.723783 80.68475 4.45728 80.15601 C 2.631507 79.49148 1.193275 78.05325 .5287479 76.22747 C 0 74.96097 0 73.06122 0 69.89496 L 0 10.78979 C 0 7.623537 0 5.723783 .5287479 4.45728 C 1.193275 2.631507 2.631507 1.193275 4.45728 .5287479 C 5.723783 0 7.623537 0 10.78979 0 Z M 10.78979 0 "/>
</g>
<g id="Layer-1" data-name="P">
<path transform="matrix(1,0,0,-1,-711.0818,983.2371)" d="M 901.6456 709.3609 L 962.7327 709.3609 C 965.5077 709.3609 967.1727 709.3609 968.2827 708.8975 C 969.8828 708.3151 971.1433 707.0546 971.7257 705.4544 C 972.1891 704.3445 972.1891 702.6795 972.1891 699.9045 L 972.1891 679.0685 C 972.1891 676.2935 972.1891 674.6285 971.7257 673.5185 C 971.1433 671.9184 969.8828 670.6579 968.2827 670.0755 C 967.1727 669.612 965.5077 669.612 962.7327 669.612 L 901.6456 669.612 C 898.8706 669.612 897.2056 669.612 896.0956 670.0755 C 894.4955 670.6579 893.235 671.9184 892.6526 673.5185 C 892.1891 674.6285 892.1891 676.2935 892.1891 679.0685 L 892.1891 699.9045 C 892.1891 702.6795 892.1891 704.3445 892.6526 705.4544 C 893.235 707.0546 894.4955 708.3151 896.0956 708.8975 C 897.2056 709.3609 898.8706 709.3609 901.6456 709.3609 Z M 901.6456 709.3609 " fill="#a5cffd"/>
<path transform="matrix(1,0,0,1,181.1073,273.87623)" stroke-width=".35" stroke-linecap="butt" stroke-miterlimit="4" stroke-linejoin="miter" fill="none" stroke="#ffffff" d="M 9.45641 0 L 70.54359 0 C 73.31857 0 74.98355 0 76.09354 .4634062 C 77.69369 1.045812 78.95419 2.30631 79.53659 3.906457 C 80 5.016448 80 6.681434 80 9.45641 L 80 30.29244 C 80 33.06742 80 34.7324 79.53659 35.84239 C 78.95419 37.44254 77.69369 38.70304 76.09354 39.28545 C 74.98355 39.74885 73.31857 39.74885 70.54359 39.74885 L 9.45641 39.74885 C 6.681434 39.74885 5.016448 39.74885 3.906457 39.28545 C 2.30631 38.70304 1.045812 37.44254 .4634062 35.84239 C 0 34.7324 0 33.06742 0 30.29244 L 0 9.45641 C 0 6.681434 0 5.016448 .4634062 3.906457 C 1.045812 2.30631 2.30631 1.045812 3.906457 .4634062 C 5.016448 0 6.681434 0 9.45641 0 Z M 9.45641 0 "/>
</g>
<g id="Layer-1" data-name="P">
<path transform="matrix(1,0,0,-1,-711.0818,983.2371)" d="M 942.6944 709.3609 L 963.3407 709.3609 C 966.1156 709.3609 967.7806 709.3609 968.8906 708.8975 C 970.4908 708.3151 971.7513 707.0546 972.3337 705.4544 C 972.7971 704.3445 972.7971 702.6795 972.7971 699.9045 L 972.7971 662.0103 C 972.7971 659.2354 972.7971 657.5704 972.3337 656.4604 C 971.7513 654.8602 970.4908 653.5997 968.8906 653.0173 C 967.7806 652.5539 966.1156 652.5539 963.3407 652.5539 L 942.6944 652.5539 C 939.9195 652.5539 938.2545 652.5539 937.1445 653.0173 C 935.5443 653.5997 934.2838 654.8602 933.7014 656.4604 C 933.238 657.5704 933.238 659.2354 933.238 662.0103 L 933.238 699.9045 C 933.238 702.6795 933.238 704.3445 933.7014 705.4544 C 934.2838 707.0546 935.5443 708.3151 937.1445 708.8975 C 938.2545 709.3609 939.9195 709.3609 942.6944 709.3609 Z M 942.6944 709.3609 " fill="#a5cffd"/>
</g>
<g id="Layer-1" data-name="P">
<path transform="matrix(1,0,0,-1,-711.0818,983.2371)" d="M 837.6087 592.3965 C 837.5756 592.3965 837.5427 592.3845 837.5174 592.3592 L 833.8902 588.732 C 833.8395 588.6813 833.8395 588.6 833.8902 588.5493 L 841.9125 580.5289 C 841.9459 580.4949 841.9459 580.4411 841.9125 580.4077 L 833.8902 572.3854 C 833.8395 572.3347 833.8395 572.2535 833.8902 572.2028 L 837.5174 568.5756 C 837.5681 568.5249 837.6493 568.5249 837.7 568.5756 L 845.7205 576.5979 C 845.7545 576.6313 845.8101 576.6313 845.8435 576.5979 L 853.864 568.5756 C 853.9147 568.5249 853.9959 568.5249 854.0466 568.5756 L 857.6738 572.2028 C 857.7245 572.2535 857.7245 572.3347 857.6738 572.3854 L 849.6515 580.4059 C 849.6181 580.4399 849.6181 580.4955 849.6515 580.5289 L 857.6738 588.5493 C 857.7239 588.6 857.7239 588.6819 857.6738 588.732 L 854.0466 592.3592 C 853.9959 592.4099 853.9147 592.4099 853.864 592.3592 L 845.8435 584.3369 C 845.8095 584.3035 845.7558 584.3035 845.7224 584.3369 L 837.7 592.3592 C 837.6747 592.3845 837.6418 592.3965 837.6087 592.3965 Z M 837.6087 592.3965 " fill="#ffffff"/>
</g>
<g id="Layer-1" data-name="P">
<path transform="matrix(1,0,0,-1,-711.0818,983.2371)" d="M 788.0532 438.9008 L 831.6506 503.9289 C 834.2315 507.7784 835.78 510.0881 837.3456 511.2704 C 839.8863 513.1272 843.1182 513.7648 846.1737 513.0121 C 847.3795 512.715 848.5241 512.2093 849.5556 511.5178 C 850.5871 510.8262 851.4896 509.9595 852.2224 508.9569 C 854.0792 506.4162 854.7168 503.1842 853.964 500.1287 C 853.465 498.2314 851.9164 495.9217 849.3356 492.0722 L 805.7381 427.0441 C 803.1573 423.1946 801.6087 420.8849 800.0431 419.7026 C 797.5025 417.8458 794.2705 417.2081 791.215 417.9609 C 790.0092 418.2579 788.8647 418.7637 787.8332 419.4552 C 786.8017 420.1468 785.8991 421.0135 785.1664 422.0161 C 783.3096 424.5568 782.672 427.7888 783.4247 430.8442 C 783.9238 432.7416 785.4723 435.0513 788.0532 438.9008 Z M 788.0532 438.9008 " fill="#f6ae2b"/>
<path transform="matrix(.5568681,-.8306009,.8306009,.5568681,67.908939,557.8535)" stroke-width="7" stroke-linecap="butt" stroke-miterlimit="4" stroke-linejoin="miter" fill="none" stroke="#ffffff" d="M 16.274 0 L 94.56445 0 C 99.19906 0 101.9798 0 103.8337 .6420258 C 106.7907 1.718312 109.1201 4.047711 110.1964 7.004782 C 110.6212 8.171748 110.8384 9.404031 110.8384 10.64589 C 110.8384 11.88775 110.6212 13.12003 110.1964 14.287 C 109.1201 17.24407 106.7907 19.57347 103.8337 20.64976 C 101.9798 21.29178 99.19906 21.29178 94.56445 21.29178 L 16.274 21.29178 C 11.63939 21.29178 8.858626 21.29178 7.004782 20.64976 C 4.047711 19.57347 1.718312 17.24407 .6420258 14.287 C .2172848 13.12003 0 11.88775 0 10.64589 C 0 9.404031 .2172848 8.171748 .6420258 7.004782 C 1.718312 4.047711 4.047711 1.718312 7.004782 .6420258 C 8.858626 0 11.63939 0 16.274 0 Z M 16.274 0 "/>
</g>
<g id="Layer-1" data-name="P">
<path transform="matrix(1,0,0,-1,-711.0818,983.2371)" d="M 765.7368 423.1444 L 798.0902 471.4732 C 801.55 476.6415 803.6259 479.7425 805.8175 481.2692 C 809.0209 483.6137 813.0975 484.4209 816.9526 483.474 C 818.8777 483.1642 822.4871 480.9385 825.464 478.9457 C 828.4409 476.9528 831.8741 474.4639 832.894 472.8022 C 835.2386 469.5987 836.0457 465.5222 835.0988 461.667 C 834.5225 459.0591 832.4466 455.9581 828.9867 450.7898 L 796.6334 402.461 C 793.1735 397.2927 791.0976 394.1917 788.906 392.665 C 785.7026 390.3205 781.6261 389.5133 777.7709 390.4602 C 775.8458 390.77 772.2365 392.9957 769.2596 394.9885 C 766.2827 396.9814 762.8495 399.4703 761.8295 401.1321 C 759.485 404.3355 758.6778 408.412 759.6247 412.2672 C 760.201 414.8751 762.277 417.9761 765.7368 423.1444 Z M 765.7368 423.1444 " fill="#8646dc"/>
<path transform="matrix(.5562956,-.8309845,.8309845,.5562956,42.729494,577.9069)" stroke-width="7" stroke-linecap="butt" stroke-miterlimit="4" stroke-linejoin="miter" fill="none" stroke="#ffffff" d="M 21.43742 0 L 79.59594 0 C 85.81542 0 89.5471 0 92.03489 .9718801 C 95.76523 2.32961 98.70375 5.268136 100.0615 8.998469 C 100.875 10.77047 101.0334 15.00794 101.0334 18.59033 C 101.0334 22.17272 100.875 26.41019 100.0615 28.1822 C 98.70375 31.91253 95.76523 34.85105 92.03489 36.20878 C 89.5471 37.18066 85.81542 37.18066 79.59594 37.18066 L 21.43742 37.18066 C 15.21794 37.18066 11.48626 37.18066 8.998469 36.20878 C 5.268136 34.85105 2.32961 31.91253 .9718801 28.1822 C .1583633 26.41019 0 22.17272 0 18.59033 C 0 15.00794 .1583633 10.77047 .9718801 8.998469 C 2.32961 5.268136 5.268136 2.32961 8.998469 .9718801 C 11.48626 0 15.21794 0 21.43742 0 Z M 21.43742 0 "/>
</g>
<g id="Layer-1" data-name="P">
<path transform="matrix(1,0,0,-1,-711.0818,983.2371)" d="M 948.5673 596.1347 C 948.5084 596.1349 948.449 596.1129 948.4043 596.0682 L 926.6709 574.3315 C 926.5815 574.2421 926.4377 574.2421 926.3482 574.3315 L 917.1865 583.4933 C 917.0971 583.5827 916.9532 583.5827 916.8638 583.4933 L 912.4559 579.0854 C 912.3665 578.996 912.3665 578.8488 912.4559 578.7594 L 921.7773 569.438 L 924.9776 566.2377 L 926.3482 564.8671 C 926.4376 564.7776 926.5815 564.7776 926.6709 564.8671 L 953.1382 591.3343 C 953.2276 591.4237 953.2276 591.5676 953.1382 591.657 L 948.7303 596.0649 C 948.6845 596.1101 948.6261 596.1346 948.5673 596.1347 Z M 948.5673 596.1347 " fill="#ffffff"/>
</g>
<g id="Layer-1" data-name="P">
<path transform="matrix(1,0,0,-1,-711.0818,983.2371)" d="M 774.5371 685.0283 C 774.4782 685.0284 774.4188 685.0065 774.374 684.9618 L 752.6407 663.2251 C 752.5513 663.1357 752.4074 663.1357 752.318 663.2251 L 743.1563 672.3868 C 743.0669 672.4762 742.923 672.4762 742.8336 672.3868 L 738.4257 667.9789 C 738.3363 667.8895 738.3363 667.7423 738.4257 667.6529 L 747.7471 658.3315 L 750.9474 655.1312 L 752.318 653.7606 C 752.4074 653.6712 752.5513 653.6712 752.6407 653.7606 L 779.1079 680.2279 C 779.1974 680.3173 779.1974 680.4611 779.1079 680.5505 L 774.7001 684.9584 C 774.6543 685.0037 774.5959 685.0282 774.5371 685.0283 Z M 774.5371 685.0283 " fill="#ffffff"/>
</g>
<g id="Layer-1" data-name="P">
<path transform="matrix(1,0,0,-1,-711.0818,983.2371)" d="M 861.5522 773.9218 C 861.4934 773.9219 861.4339 773.9 861.3892 773.8553 L 839.6558 752.1186 C 839.5664 752.0292 839.4226 752.0292 839.3331 752.1186 L 830.1714 761.2803 C 830.082 761.3698 829.9381 761.3698 829.8487 761.2803 L 825.4408 756.8725 C 825.3514 756.783 825.3514 756.6359 825.4408 756.5464 L 834.7623 747.225 L 837.9625 744.0247 L 839.3331 742.6541 C 839.4226 742.5647 839.5664 742.5647 839.6558 742.6541 L 866.1231 769.1214 C 866.2125 769.2108 866.2125 769.3547 866.1231 769.4441 L 861.7152 773.852 C 861.6694 773.8972 861.611 773.9217 861.5522 773.9218 Z M 861.5522 773.9218 " fill="#ffffff"/>
</g>
<g id="Layer-1" data-name="P">
<path transform="matrix(1,0,0,-1,-711.0818,983.2371)" d="M 860.2023 862.8153 C 860.1435 862.8155 860.084 862.7935 860.0393 862.7488 L 838.306 841.0121 C 838.2166 840.9227 838.0727 840.9227 837.9833 841.0121 L 828.8216 850.1739 C 828.7321 850.2633 828.5883 850.2633 828.4989 850.1739 L 824.091 845.766 C 824.0016 845.6766 824.0016 845.5294 824.091 845.44 L 833.4124 836.1186 L 836.6127 832.9183 L 837.9833 831.5477 C 838.0727 831.4582 838.2166 831.4582 838.306 831.5477 L 864.7732 858.0149 C 864.8626 858.1043 864.8626 858.2482 864.7732 858.3376 L 860.3653 862.7455 C 860.3196 862.7907 860.2612 862.8152 860.2023 862.8153 Z M 860.2023 862.8153 " fill="#ffffff"/>
</g>
<g id="Layer-1" data-name="P">
<path transform="matrix(1,0,0,-1,-711.0818,983.2371)" d="M 948.5673 773.9218 C 948.5084 773.9219 948.449 773.9 948.4043 773.8553 L 926.6709 752.1186 C 926.5815 752.0292 926.4377 752.0292 926.3482 752.1186 L 917.1865 761.2803 C 917.0971 761.3698 916.9532 761.3698 916.8638 761.2803 L 912.4559 756.8725 C 912.3665 756.783 912.3665 756.6359 912.4559 756.5464 L 921.7773 747.225 L 924.9776 744.0247 L 926.3482 742.6541 C 926.4376 742.5647 926.5815 742.5647 926.6709 742.6541 L 953.1382 769.1214 C 953.2276 769.2108 953.2276 769.3547 953.1382 769.4441 L 948.7303 773.852 C 948.6845 773.8972 948.6261 773.9217 948.5673 773.9218 Z M 948.5673 773.9218 " fill="#ffffff"/>
</g>
<g id="Layer-1" data-name="P">
<path transform="matrix(1,0,0,-1,-711.0818,983.2371)" d="M 774.5371 862.8153 C 774.4782 862.8155 774.4188 862.7935 774.374 862.7488 L 752.6407 841.0121 C 752.5513 840.9227 752.4074 840.9227 752.318 841.0121 L 743.1563 850.1739 C 743.0669 850.2633 742.923 850.2633 742.8336 850.1739 L 738.4257 845.766 C 738.3363 845.6766 738.3363 845.5294 738.4257 845.44 L 747.7471 836.1186 L 750.9474 832.9183 L 752.318 831.5477 C 752.4074 831.4582 752.5513 831.4582 752.6407 831.5477 L 779.1079 858.0149 C 779.1974 858.1043 779.1974 858.2482 779.1079 858.3376 L 774.7001 862.7455 C 774.6543 862.7907 774.5959 862.8152 774.5371 862.8153 Z M 774.5371 862.8153 " fill="#ffffff"/>
</g>
<g id="Layer-1" data-name="P">
<path transform="matrix(1,0,0,-1,-711.0818,983.2371)" d="M 774.5371 951.7089 C 774.4782 951.709 774.4188 951.687 774.374 951.6423 L 752.6407 929.9057 C 752.5513 929.8162 752.4074 929.8162 752.318 929.9057 L 743.1563 939.0674 C 743.0669 939.1568 742.923 939.1568 742.8336 939.0674 L 738.4257 934.6595 C 738.3363 934.5701 738.3363 934.4229 738.4257 934.3335 L 747.7471 925.0121 L 750.9474 921.8118 L 752.318 920.4412 C 752.4074 920.3518 752.5513 920.3518 752.6407 920.4412 L 779.1079 946.9084 C 779.1974 946.9979 779.1974 947.1417 779.1079 947.2311 L 774.7001 951.639 C 774.6543 951.6842 774.5959 951.7087 774.5371 951.7089 Z M 774.5371 951.7089 " fill="#ffffff"/>
</g>
<g id="Layer-1" data-name="P">
<path transform="matrix(1,0,0,-1,-711.0818,983.2371)" d="M 946.7899 951.7089 C 946.731 951.709 946.6716 951.6871 946.6268 951.6423 L 924.8935 929.9057 C 924.8041 929.8163 924.6602 929.8162 924.5708 929.9057 L 915.4091 939.0674 C 915.3197 939.1568 915.1758 939.1568 915.0864 939.0674 L 910.6785 934.6595 C 910.5891 934.5701 910.5891 934.4229 910.6785 934.3335 L 919.9999 925.0121 L 923.2002 921.8118 L 924.5708 920.4412 C 924.6602 920.3518 924.8041 920.3518 924.8935 920.4412 L 951.3607 946.9084 C 951.4502 946.9979 951.4502 947.1417 951.3607 947.2311 L 946.9529 951.639 C 946.9071 951.6843 946.8487 951.7087 946.7899 951.7089 Z M 946.7899 951.7089 " fill="#ffffff"/>
</g>
<g id="Layer-1" data-name="P">
<path transform="matrix(1,0,0,-1,-711.0818,983.2371)" d="M 902.2535 709.3609 L 963.3406 709.3609 C 966.1156 709.3609 967.7806 709.3609 968.8906 708.8975 C 970.4907 708.3151 971.7512 707.0546 972.3337 705.4544 C 972.7971 704.3445 972.7971 702.6795 972.7971 699.9045 L 972.7971 662.0103 C 972.7971 659.2354 972.7971 657.5704 972.3337 656.4604 C 971.7512 654.8602 970.4907 653.5997 968.8906 653.0173 C 967.7806 652.5539 966.1156 652.5539 963.3406 652.5539 L 902.2535 652.5539 C 899.4785 652.5539 897.8135 652.5539 896.7035 653.0173 C 895.1034 653.5997 893.8429 654.8602 893.2605 656.4604 C 892.7971 657.5704 892.7971 659.2354 892.7971 662.0103 L 892.7971 699.9045 C 892.7971 702.6795 892.7971 704.3445 893.2605 705.4544 C 893.8429 707.0546 895.1034 708.3151 896.7035 708.8975 C 897.8135 709.3609 899.4785 709.3609 902.2535 709.3609 Z M 902.2535 709.3609 " fill="#a5cffd"/>
<path transform="matrix(1,0,0,1,181.71533,273.87623)" stroke-width="7" stroke-linecap="butt" stroke-miterlimit="4" stroke-linejoin="miter" fill="none" stroke="#ffffff" d="M 9.45641 0 L 70.54359 0 C 73.31857 0 74.98355 0 76.09354 .4634062 C 77.69369 1.045812 78.95419 2.30631 79.53659 3.906457 C 80 5.016448 80 6.681434 80 9.45641 L 80 47.35057 C 80 50.12554 80 51.79053 79.53659 52.90052 C 78.95419 54.50067 77.69369 55.76116 76.09354 56.34357 C 74.98355 56.80698 73.31857 56.80698 70.54359 56.80698 L 9.45641 56.80698 C 6.681434 56.80698 5.016448 56.80698 3.906457 56.34357 C 2.30631 55.76116 1.045812 54.50067 .4634062 52.90052 C 0 51.79053 0 50.12554 0 47.35057 L 0 9.45641 C 0 6.681434 0 5.016448 .4634062 3.906457 C 1.045812 2.30631 2.30631 1.045812 3.906457 .4634062 C 5.016448 0 6.681434 0 9.45641 0 Z M 9.45641 0 "/>
</g>
<g id="Layer-1" data-name="P">
<path transform="matrix(1,0,0,-1,-711.0818,983.2371)" d="M 904.1782 673.6949 L 925.8317 673.6949 C 928.6067 673.6949 930.2717 673.6949 931.3816 673.2314 C 932.9818 672.649 934.2423 671.3885 934.8247 669.7884 C 935.2881 668.6784 935.2881 667.0134 935.2881 664.2384 L 935.2881 638.3462 C 935.2881 635.5712 935.2881 633.9063 934.8247 632.7963 C 934.2423 631.1961 932.9818 629.9356 931.3816 629.3532 C 930.2717 628.8898 928.6067 628.8898 925.8317 628.8898 L 904.1782 628.8898 C 901.4032 628.8898 899.7382 628.8898 898.6282 629.3532 C 897.0281 629.9356 895.7676 631.1961 895.1851 632.7963 C 894.7217 633.9063 894.7217 635.5712 894.7217 638.3462 L 894.7217 664.2384 C 894.7217 667.0134 894.7217 668.6784 895.1851 669.7884 C 895.7676 671.3885 897.0281 672.649 898.6282 673.2314 C 899.7382 673.6949 901.4032 673.6949 904.1782 673.6949 Z M 904.1782 673.6949 " fill="#3fc59d"/>
<path transform="matrix(1,0,0,1,183.6399,309.54225)" stroke-width=".35" stroke-linecap="butt" stroke-miterlimit="4" stroke-linejoin="miter" fill="none" stroke="#ffffff" d="M 9.45641 0 L 31.10995 0 C 33.88493 0 35.54992 0 36.65991 .4634062 C 38.26005 1.045812 39.52055 2.30631 40.10296 3.906457 C 40.56636 5.016448 40.56636 6.681434 40.56636 9.45641 L 40.56636 35.34864 C 40.56636 38.12361 40.56636 39.7886 40.10296 40.89859 C 39.52055 42.49874 38.26005 43.75923 36.65991 44.34164 C 35.54992 44.80505 33.88493 44.80505 31.10995 44.80505 L 9.45641 44.80505 C 6.681434 44.80505 5.016448 44.80505 3.906457 44.34164 C 2.30631 43.75923 1.045812 42.49874 .4634062 40.89859 C 0 39.7886 0 38.12361 0 35.34864 L 0 9.45641 C 0 6.681434 0 5.016448 .4634062 3.906457 C 1.045812 2.30631 2.30631 1.045812 3.906457 .4634062 C 5.016448 0 6.681434 0 9.45641 0 Z M 9.45641 0 "/>
</g>
<g id="Layer-1" data-name="P">
<path transform="matrix(1,0,0,-1,-711.0818,983.2371)" d="M 911.2354 661.657 L 959.6169 661.657 C 962.3919 661.657 964.0569 661.657 965.1669 661.1936 C 966.767 660.6112 968.0275 659.3507 968.6099 657.7506 C 969.0733 656.6406 969.0733 654.9756 969.0733 652.2006 L 969.0733 638.2212 C 969.0733 635.4462 969.0733 633.7813 968.6099 632.6713 C 968.0275 631.0711 966.767 629.8106 965.1669 629.2282 C 964.0569 628.7648 962.3919 628.7648 959.6169 628.7648 L 911.2354 628.7648 C 908.4604 628.7648 906.7954 628.7648 905.6854 629.2282 C 904.0853 629.8106 902.8248 631.0711 902.2424 632.6713 C 901.779 633.7813 901.779 635.4462 901.779 638.2212 L 901.779 652.2006 C 901.779 654.9756 901.779 656.6406 902.2424 657.7506 C 902.8248 659.3507 904.0853 660.6112 905.6854 661.1936 C 906.7954 661.657 908.4604 661.657 911.2354 661.657 Z M 911.2354 661.657 " fill="#3fc59d"/>
</g>
<g id="Layer-1" data-name="P">
<path transform="matrix(1,0,0,-1,-711.0818,983.2371)" d="M 827.4612 653.5638 L 875.8427 653.5638 C 878.6176 653.5638 880.2826 653.5638 881.3926 653.1004 C 882.9928 652.518 884.2533 651.2575 884.8357 649.6574 C 885.2991 648.5474 885.2991 646.8824 885.2991 644.1074 L 885.2991 639.1606 C 885.2991 636.3856 885.2991 634.7206 884.8357 633.6106 C 884.2533 632.0105 882.9928 630.75 881.3926 630.1676 C 880.2826 629.7041 878.6176 629.7041 875.8427 629.7041 L 827.4612 629.7041 C 824.6862 629.7041 823.0212 629.7041 821.9112 630.1676 C 820.3111 630.75 819.0506 632.0105 818.4682 633.6106 C 818.0048 634.7206 818.0048 636.3856 818.0048 639.1606 L 818.0048 644.1074 C 818.0048 646.8824 818.0048 648.5474 818.4682 649.6574 C 819.0506 651.2575 820.3111 652.518 821.9112 653.1004 C 823.0212 653.5638 824.6862 653.5638 827.4612 653.5638 Z M 827.4612 653.5638 " fill="#fb6958"/>
</g>
<g id="Layer-1" data-name="P">
<path transform="matrix(1,0,0,-1,-711.0818,983.2371)" d="M 853.4839 673.8227 L 875.8427 673.8227 C 878.6176 673.8227 880.2826 673.8227 881.3926 673.3593 C 882.9928 672.7769 884.2533 671.5164 884.8357 669.9163 C 885.2991 668.8063 885.2991 667.1413 885.2991 664.3663 L 885.2991 639.1606 C 885.2991 636.3856 885.2991 634.7206 884.8357 633.6106 C 884.2533 632.0105 882.9928 630.75 881.3926 630.1676 C 880.2826 629.7042 878.6176 629.7042 875.8427 629.7042 L 853.4839 629.7042 C 850.709 629.7042 849.044 629.7042 847.934 630.1676 C 846.3338 630.75 845.0733 632.0105 844.4909 633.6106 C 844.0275 634.7206 844.0275 636.3856 844.0275 639.1606 L 844.0275 664.3663 C 844.0275 667.1413 844.0275 668.8063 844.4909 669.9163 C 845.0733 671.5164 846.3338 672.7769 847.934 673.3593 C 849.044 673.8227 850.709 673.8227 853.4839 673.8227 Z M 853.4839 673.8227 " fill="#fb6958"/>
</g>
<g id="Layer-1" data-name="P">
<path transform="matrix(1,0,0,1,99.633487,307.3266)" stroke-width="21" stroke-linecap="butt" stroke-miterlimit="4" stroke-linejoin="miter" fill="none" stroke="#f6ae2b" d="M 154.777 26.72917 C 190.1843 62.36806 190.1843 120.1501 154.777 155.789 C 119.3696 191.4279 61.9629 191.4279 26.55553 155.789 C -8.851843 120.1501 -8.851843 62.36806 26.55553 26.72917 C 61.9629 -8.909723 119.3696 -8.909723 154.777 26.72917 Z M 154.777 26.72917 "/>
</g>
<g id="Layer-1" data-name="P">
<path transform="matrix(1,0,0,1,108.2431,316.85633)" stroke-width="9" stroke-linecap="butt" stroke-miterlimit="4" stroke-linejoin="miter" fill="none" stroke="#ffffff" d="M 137.4991 23.74537 C 168.9539 55.40587 168.9539 106.7377 137.4991 138.3982 C 106.0443 170.0587 55.04594 170.0587 23.59112 138.3982 C -7.863705 106.7377 -7.863705 55.40587 23.59112 23.74537 C 55.04594 -7.915124 106.0443 -7.915124 137.4991 23.74537 Z M 137.4991 23.74537 "/>
</g>
<g id="Layer-1" data-name="P">
<path transform="matrix(1,0,0,1,87.649539,296.3266)" stroke-width="9" stroke-linecap="butt" stroke-miterlimit="4" stroke-linejoin="miter" fill="none" stroke="#ffffff" d="M 172.6546 29.81655 C 212.1518 69.57195 212.1518 134.0282 172.6546 173.7836 C 133.1575 213.539 69.11999 213.539 29.62285 173.7836 C -9.874284 134.0282 -9.874284 69.57195 29.62285 29.81655 C 69.11999 -9.93885 133.1575 -9.93885 172.6546 29.81655 Z M 172.6546 29.81655 "/>
</g>
</g>
</g>
</svg>
